<svg xmlns="http://www.w3.org/2000/svg">
    <defs>
        <!-- Editar No Accionado -->
        <svg id="editar" width="39" height="39" viewBox="0 0 39 39" fill="currentColor"
            xmlns="http://www.w3.org/2000/svg">
            <circle cx="19" cy="19" r="19" />
            <path d="M14.2509 24.7263H15.4766L23.0274 17.1754L21.8018 15.9498L14.2509 23.5006V24.7263ZM26.77 15.906L23.0493 12.229L24.275 11.0034C24.6106 10.6678 25.0229 10.5 25.512 10.5C26.0005 10.5 26.4126 10.6678 26.7482 11.0034L27.9738 12.229C28.3094 12.5646 28.4845 12.9697 28.4991 13.4442C28.5137 13.9181 28.3532 14.3229 28.0176 14.6584L26.77 15.906ZM25.5006 17.1973L16.2207 26.4772H12.5V22.7565L21.7799 13.4766L25.5006 17.1973ZM22.4146 16.5626L21.8018 15.9498L23.0274 17.1754L22.4146 16.5626Z" fill="white"/>
        </svg>
        <!-- Editar Accionado -->
        <svg id="editar_accionado" width="39" height="39" viewBox="0 0 39 39" fill="currentColor"
            xmlns="http://www.w3.org/2000/svg">
            <circle cx="19" cy="19" r="18.5" fill="white" stroke="currentColor" />
            <path d="M14.2509 24.7263H15.4766L23.0274 17.1754L21.8018 15.9498L14.2509 23.5006V24.7263ZM26.77 15.906L23.0493 12.229L24.275 11.0034C24.6106 10.6678 25.0229 10.5 25.512 10.5C26.0005 10.5 26.4126 10.6678 26.7482 11.0034L27.9738 12.229C28.3094 12.5646 28.4845 12.9697 28.4991 13.4442C28.5137 13.9181 28.3532 14.3229 28.0176 14.6584L26.77 15.906ZM25.5006 17.1973L16.2207 26.4772H12.5V22.7565L21.7799 13.4766L25.5006 17.1973ZM22.4146 16.5626L21.8018 15.9498L23.0274 17.1754L22.4146 16.5626Z"/>
        </svg>
        <!-- Editar Disabled -->
        <svg id="editar_disabled" width="39" height="39" viewBox="0 0 39 39" fill="none"
            xmlns="http://www.w3.org/2000/svg">
            <circle cx="19" cy="19" r="18.5" fill="white" stroke="#99948E"/>
            <path d="M14.2509 24.7263H15.4766L23.0274 17.1754L21.8018 15.9498L14.2509 23.5006V24.7263ZM26.77 15.906L23.0493 12.229L24.275 11.0034C24.6106 10.6678 25.0229 10.5 25.512 10.5C26.0005 10.5 26.4126 10.6678 26.7482 11.0034L27.9738 12.229C28.3094 12.5646 28.4845 12.9697 28.4991 13.4442C28.5137 13.9181 28.3532 14.3229 28.0176 14.6584L26.77 15.906ZM25.5006 17.1973L16.2207 26.4772H12.5V22.7565L21.7799 13.4766L25.5006 17.1973ZM22.4146 16.5626L21.8018 15.9498L23.0274 17.1754L22.4146 16.5626Z" fill="#99948E"/>
        </svg>
        <!-- Lector_qr No Accionado -->
        <svg id="lector_qr" width="38" height="38" viewBox="0 0 38 38" fill="currentColor"
            xmlns="http://www.w3.org/2000/svg">
            <circle cx="19" cy="19" r="19"/>
            <path d="M13.6667 13.6667H17.6667V17.6667H13.6667V13.6667ZM24.3333 13.6667V17.6667H20.3333V13.6667H24.3333ZM20.3333 21H21.6667V19.6667H20.3333V18.3333H21.6667V19.6667H23V18.3333H24.3333V19.6667H23V21H24.3333V23H23V24.3333H21.6667V23H19.6667V24.3333H18.3333V21.6667H20.3333V21ZM21.6667 21V23H23V21H21.6667ZM13.6667 24.3333V20.3333H17.6667V24.3333H13.6667ZM15 15V16.3333H16.3333V15H15ZM21.6667 15V16.3333H23V15H21.6667ZM15 21.6667V23H16.3333V21.6667H15ZM13.6667 18.3333H15V19.6667H13.6667V18.3333ZM17 18.3333H19.6667V21H18.3333V19.6667H17V18.3333ZM18.3333 15H19.6667V17.6667H18.3333V15ZM12.3333 12.3333V15H11V12.3333C11 11.9797 11.1405 11.6406 11.3905 11.3905C11.6406 11.1405 11.9797 11 12.3333 11H15V12.3333H12.3333ZM25.6667 11C26.0203 11 26.3594 11.1405 26.6095 11.3905C26.8595 11.6406 27 11.9797 27 12.3333V15H25.6667V12.3333H23V11H25.6667ZM12.3333 23V25.6667H15V27H12.3333C11.9797 27 11.6406 26.8595 11.3905 26.6095C11.1405 26.3594 11 26.0203 11 25.6667V23H12.3333ZM25.6667 25.6667V23H27V25.6667C27 26.0203 26.8595 26.3594 26.6095 26.6095C26.3594 26.8595 26.0203 27 25.6667 27H23V25.6667H25.6667Z" fill="white"/>
        </svg>
        <!-- Lector_qr Accionado -->
        <svg id="lector_accionado" width="38" height="38" viewBox="0 0 38 38" fill="none"
            xmlns="http://www.w3.org/2000/svg">
            <circle cx="19" cy="19" r="18.5" fill="white" stroke="#01B0EA"/>
            <path d="M13.6667 13.6667H17.6667V17.6667H13.6667V13.6667ZM24.3333 13.6667V17.6667H20.3333V13.6667H24.3333ZM20.3333 21H21.6667V19.6667H20.3333V18.3333H21.6667V19.6667H23V18.3333H24.3333V19.6667H23V21H24.3333V23H23V24.3333H21.6667V23H19.6667V24.3333H18.3333V21.6667H20.3333V21ZM21.6667 21V23H23V21H21.6667ZM13.6667 24.3333V20.3333H17.6667V24.3333H13.6667ZM15 15V16.3333H16.3333V15H15ZM21.6667 15V16.3333H23V15H21.6667ZM15 21.6667V23H16.3333V21.6667H15ZM13.6667 18.3333H15V19.6667H13.6667V18.3333ZM17 18.3333H19.6667V21H18.3333V19.6667H17V18.3333ZM18.3333 15H19.6667V17.6667H18.3333V15ZM12.3333 12.3333V15H11V12.3333C11 11.9797 11.1405 11.6406 11.3905 11.3905C11.6406 11.1405 11.9797 11 12.3333 11H15V12.3333H12.3333ZM25.6667 11C26.0203 11 26.3594 11.1405 26.6095 11.3905C26.8595 11.6406 27 11.9797 27 12.3333V15H25.6667V12.3333H23V11H25.6667ZM12.3333 23V25.6667H15V27H12.3333C11.9797 27 11.6406 26.8595 11.3905 26.6095C11.1405 26.3594 11 26.0203 11 25.6667V23H12.3333ZM25.6667 25.6667V23H27V25.6667C27 26.0203 26.8595 26.3594 26.6095 26.6095C26.3594 26.8595 26.0203 27 25.6667 27H23V25.6667H25.6667Z" fill="#01B0EA"/>
        </svg>
        <!-- Lector_qr Disabled -->
        <svg id="lector_qr_disabled" width="38" height="38" viewBox="0 0 38 38" fill="none"
            xmlns="http://www.w3.org/2000/svg">
            <circle cx="19" cy="19" r="18.5" fill="white" stroke="#99948E"/>
            <path d="M13.6667 13.6667H17.6667V17.6667H13.6667V13.6667ZM24.3333 13.6667V17.6667H20.3333V13.6667H24.3333ZM20.3333 21H21.6667V19.6667H20.3333V18.3333H21.6667V19.6667H23V18.3333H24.3333V19.6667H23V21H24.3333V23H23V24.3333H21.6667V23H19.6667V24.3333H18.3333V21.6667H20.3333V21ZM21.6667 21V23H23V21H21.6667ZM13.6667 24.3333V20.3333H17.6667V24.3333H13.6667ZM15 15V16.3333H16.3333V15H15ZM21.6667 15V16.3333H23V15H21.6667ZM15 21.6667V23H16.3333V21.6667H15ZM13.6667 18.3333H15V19.6667H13.6667V18.3333ZM17 18.3333H19.6667V21H18.3333V19.6667H17V18.3333ZM18.3333 15H19.6667V17.6667H18.3333V15ZM12.3333 12.3333V15H11V12.3333C11 11.9797 11.1405 11.6406 11.3905 11.3905C11.6406 11.1405 11.9797 11 12.3333 11H15V12.3333H12.3333ZM25.6667 11C26.0203 11 26.3594 11.1405 26.6095 11.3905C26.8595 11.6406 27 11.9797 27 12.3333V15H25.6667V12.3333H23V11H25.6667ZM12.3333 23V25.6667H15V27H12.3333C11.9797 27 11.6406 26.8595 11.3905 26.6095C11.1405 26.3594 11 26.0203 11 25.6667V23H12.3333ZM25.6667 25.6667V23H27V25.6667C27 26.0203 26.8595 26.3594 26.6095 26.6095C26.3594 26.8595 26.0203 27 25.6667 27H23V25.6667H25.6667Z" fill="#99948E"/>
        </svg>
        <!-- Unidad de Medida -->
        <svg id="unidad_medida" width="39" height="39" viewBox="0 0 39 39" fill="currentColor"
            xmlns="http://www.w3.org/2000/svg">
            <circle cx="19" cy="19" r="19" />
            <path d="M25.9492 25H13.0684C12.5043 25 12.0185 24.7963 11.6111 24.3889C11.2037 23.9815 11 23.4957 11 22.9316V10.0508C11 9.5964 11.2115 9.27892 11.6346 9.0984C12.0577 8.91851 12.426 8.98527 12.7394 9.29867L14.8548 11.4141L13.5855 12.6834L14.2437 13.3415L15.513 12.0723L17.9575 14.5168L16.6882 15.786L17.3463 16.4442L18.6156 15.1749L21.0601 17.6194L19.7909 18.8887L20.449 19.5468L21.7183 18.2776L24.1628 20.7221L22.8935 21.9914L23.5517 22.6495L24.8209 21.3802L26.7013 23.2606C27.0147 23.574 27.0815 23.9423 26.9016 24.3654C26.7211 24.7885 26.4036 25 25.9492 25ZM13.8206 14.3757V22.1794H21.6243L13.8206 14.3757Z" fill="white"/>
        </svg>
        <!-- Unidad de Medida Accionado -->
        <svg id="unidad_medida_accionado" width="39" height="39" viewBox="0 0 39 39" fill="currentColor"
            xmlns="http://www.w3.org/2000/svg">
            <circle cx="19" cy="19" r="18.5" fill="white" stroke="currentColor"/>
            <path d="M25.9492 25H13.0684C12.5043 25 12.0185 24.7963 11.6111 24.3889C11.2037 23.9815 11 23.4957 11 22.9316V10.0508C11 9.5964 11.2115 9.27892 11.6346 9.0984C12.0577 8.91851 12.426 8.98527 12.7394 9.29867L14.8548 11.4141L13.5855 12.6834L14.2437 13.3415L15.513 12.0723L17.9575 14.5168L16.6882 15.786L17.3463 16.4442L18.6156 15.1749L21.0601 17.6194L19.7909 18.8887L20.449 19.5468L21.7183 18.2776L24.1628 20.7221L22.8935 21.9914L23.5517 22.6495L24.8209 21.3802L26.7013 23.2606C27.0147 23.574 27.0815 23.9423 26.9016 24.3654C26.7211 24.7885 26.4036 25 25.9492 25ZM13.8206 14.3757V22.1794H21.6243L13.8206 14.3757Z" />
        </svg>
        <!-- Unidad de Medida Disabled -->
        <svg id="unidad_medida_disabled" width="39" height="39" viewBox="0 0 39 39" fill="none"
            xmlns="http://www.w3.org/2000/svg">
            <circle cx="19" cy="19" r="18.5" fill="white" stroke="#99948E"/>
            <path d="M25.9492 25H13.0684C12.5043 25 12.0185 24.7963 11.6111 24.3889C11.2037 23.9815 11 23.4957 11 22.9316V10.0508C11 9.5964 11.2115 9.27892 11.6346 9.0984C12.0577 8.91851 12.426 8.98527 12.7394 9.29867L14.8548 11.4141L13.5855 12.6834L14.2437 13.3415L15.513 12.0723L17.9575 14.5168L16.6882 15.786L17.3463 16.4442L18.6156 15.1749L21.0601 17.6194L19.7909 18.8887L20.449 19.5468L21.7183 18.2776L24.1628 20.7221L22.8935 21.9914L23.5517 22.6495L24.8209 21.3802L26.7013 23.2606C27.0147 23.574 27.0815 23.9423 26.9016 24.3654C26.7211 24.7885 26.4036 25 25.9492 25ZM13.8206 14.3757V22.1794H21.6243L13.8206 14.3757Z" fill="#99948E"/>
        </svg>
        <!-- Stock -->
        <svg id="stock" width="39" height="39" viewBox="0 0 39 39" fill="currentColor"
            xmlns="http://www.w3.org/2000/svg">
            <circle cx="19" cy="19" r="19" />
            <path d="M13.3333 28.8889C12.4074 28.8889 11.6204 28.5648 10.9722 27.9167C10.3241 27.2685 10 26.4815 10 25.5556V16.6667C10 16.3519 10.1065 16.088 10.3194 15.875C10.5324 15.662 10.7963 15.5556 11.1111 15.5556H28.8889C29.2037 15.5556 29.4676 15.662 29.6806 15.875C29.8935 16.088 30 16.3519 30 16.6667V25.5556C30 26.4815 29.6759 27.2685 29.0278 27.9167C28.3796 28.5648 27.5926 28.8889 26.6667 28.8889H13.3333ZM12.2222 17.7778V25.5556C12.2222 25.8704 12.3287 26.1343 12.5417 26.3472C12.7546 26.5602 13.0185 26.6667 13.3333 26.6667H26.6667C26.9815 26.6667 27.2454 26.5602 27.4583 26.3472C27.6713 26.1343 27.7778 25.8704 27.7778 25.5556V17.7778H12.2222ZM16.6667 12.2222V11.1111C16.6667 10.7963 16.7731 10.5324 16.9861 10.3194C17.1991 10.1065 17.463 10 17.7778 10H22.2222C22.537 10 22.8009 10.1065 23.0139 10.3194C23.2269 10.5324 23.3333 10.7963 23.3333 11.1111V12.2222H28.8889C29.2037 12.2222 29.4676 12.3287 29.6806 12.5417C29.8935 12.7546 30 13.0185 30 13.3333C30 13.6481 29.8935 13.912 29.6806 14.125C29.4676 14.338 29.2037 14.4444 28.8889 14.4444H11.1111C10.7963 14.4444 10.5324 14.338 10.3194 14.125C10.1065 13.912 10 13.6481 10 13.3333C10 13.0185 10.1065 12.7546 10.3194 12.5417C10.5324 12.3287 10.7963 12.2222 11.1111 12.2222H16.6667Z" fill="white"/>
        </svg>
        <!-- Stock Accionado -->
        <svg id="stock_accionado" width="39" height="39" viewBox="0 0 39 39" fill="currentColor"
            xmlns="http://www.w3.org/2000/svg">
            <circle cx="19" cy="19" r="18.5" fill="white" stroke="currentColor"/>
            <path d="M13.3333 28.8889C12.4074 28.8889 11.6204 28.5648 10.9722 27.9167C10.3241 27.2685 10 26.4815 10 25.5556V16.6667C10 16.3519 10.1065 16.088 10.3194 15.875C10.5324 15.662 10.7963 15.5556 11.1111 15.5556H28.8889C29.2037 15.5556 29.4676 15.662 29.6806 15.875C29.8935 16.088 30 16.3519 30 16.6667V25.5556C30 26.4815 29.6759 27.2685 29.0278 27.9167C28.3796 28.5648 27.5926 28.8889 26.6667 28.8889H13.3333ZM12.2222 17.7778V25.5556C12.2222 25.8704 12.3287 26.1343 12.5417 26.3472C12.7546 26.5602 13.0185 26.6667 13.3333 26.6667H26.6667C26.9815 26.6667 27.2454 26.5602 27.4583 26.3472C27.6713 26.1343 27.7778 25.8704 27.7778 25.5556V17.7778H12.2222ZM16.6667 12.2222V11.1111C16.6667 10.7963 16.7731 10.5324 16.9861 10.3194C17.1991 10.1065 17.463 10 17.7778 10H22.2222C22.537 10 22.8009 10.1065 23.0139 10.3194C23.2269 10.5324 23.3333 10.7963 23.3333 11.1111V12.2222H28.8889C29.2037 12.2222 29.4676 12.3287 29.6806 12.5417C29.8935 12.7546 30 13.0185 30 13.3333C30 13.6481 29.8935 13.912 29.6806 14.125C29.4676 14.338 29.2037 14.4444 28.8889 14.4444H11.1111C10.7963 14.4444 10.5324 14.338 10.3194 14.125C10.1065 13.912 10 13.6481 10 13.3333C10 13.0185 10.1065 12.7546 10.3194 12.5417C10.5324 12.3287 10.7963 12.2222 11.1111 12.2222H16.6667Z" />
        </svg>
        <!-- Stock Disabled -->
        <svg id="stock_disabled" width="39" height="39" viewBox="0 0 39 39" fill="none"
            xmlns="http://www.w3.org/2000/svg">
            <circle cx="19" cy="19" r="18.5" fill="white" stroke="#99948E"/>
            <path d="M13.3333 28.8889C12.4074 28.8889 11.6204 28.5648 10.9722 27.9167C10.3241 27.2685 10 26.4815 10 25.5556V16.6667C10 16.3519 10.1065 16.088 10.3194 15.875C10.5324 15.662 10.7963 15.5556 11.1111 15.5556H28.8889C29.2037 15.5556 29.4676 15.662 29.6806 15.875C29.8935 16.088 30 16.3519 30 16.6667V25.5556C30 26.4815 29.6759 27.2685 29.0278 27.9167C28.3796 28.5648 27.5926 28.8889 26.6667 28.8889H13.3333ZM12.2222 17.7778V25.5556C12.2222 25.8704 12.3287 26.1343 12.5417 26.3472C12.7546 26.5602 13.0185 26.6667 13.3333 26.6667H26.6667C26.9815 26.6667 27.2454 26.5602 27.4583 26.3472C27.6713 26.1343 27.7778 25.8704 27.7778 25.5556V17.7778H12.2222ZM16.6667 12.2222V11.1111C16.6667 10.7963 16.7731 10.5324 16.9861 10.3194C17.1991 10.1065 17.463 10 17.7778 10H22.2222C22.537 10 22.8009 10.1065 23.0139 10.3194C23.2269 10.5324 23.3333 10.7963 23.3333 11.1111V12.2222H28.8889C29.2037 12.2222 29.4676 12.3287 29.6806 12.5417C29.8935 12.7546 30 13.0185 30 13.3333C30 13.6481 29.8935 13.912 29.6806 14.125C29.4676 14.338 29.2037 14.4444 28.8889 14.4444H11.1111C10.7963 14.4444 10.5324 14.338 10.3194 14.125C10.1065 13.912 10 13.6481 10 13.3333C10 13.0185 10.1065 12.7546 10.3194 12.5417C10.5324 12.3287 10.7963 12.2222 11.1111 12.2222H16.6667Z" fill="#99948E"/>
        </svg>
        <!-- Eliminar -->
        <svg id="eliminar" width="39" height="39" viewBox="0 0 39 39" fill="currentColor"
            xmlns="http://www.w3.org/2000/svg">
            <circle cx="19" cy="19" r="19" />
            <g>
                <path d="M23.0455 16.7955V26.2955H15.0455V16.7955H23.0455ZM22.9205 12.2955H16.1705L15.4205 13.0455H12.7955V14.5455H25.2955V13.0455H20.6705L22.9205 12.2955ZM25.5455 15.2955H13.5455V26.2955C13.5455 27.1205 14.2205 27.7955 15.0455 27.7955H23.0455C23.8705 27.7955 24.8705 27.1205 24.8705 26.2955V15.2955Z" fill="white"/>
            </g>
        </svg>
        <!-- Eliminar Accionado -->
        <svg id="eliminar_accionado" width="39" height="39" viewBox="0 0 39 39" fill="currentColor"
            xmlns="http://www.w3.org/2000/svg">
            <circle cx="19" cy="19" r="18.5" fill="white" stroke="currentColor"/>
            <g>
                <path d="M23.0455 16.7955V26.2955H15.0455V16.7955H23.0455ZM22.9205 12.2955H16.1705L15.4205 13.0455H12.7955V14.5455H25.2955V13.0455H20.6705L22.9205 12.2955ZM25.5455 15.2955H13.5455V26.2955C13.5455 27.1205 14.2205 27.7955 15.0455 27.7955H23.0455C23.8705 27.7955 24.8705 27.1205 24.8705 26.2955V15.2955Z" fill="currentColor"/>
            </g>
        </svg>
        <!-- Eliminar Disabled -->
        <svg id="eliminar_disabled" width="39" height="39" viewBox="0 0 39 39" fill="none"
            xmlns="http://www.w3.org/2000/svg">
            <circle cx="19" cy="19" r="18.5" fill="white" stroke="#99948E"/>
            <g>
                <path d="M23.0455 16.7955V26.2955H15.0455V16.7955H23.0455ZM22.9205 12.2955H16.1705L15.4205 13.0455H12.7955V14.5455H25.2955V13.0455H20.6705L22.9205 12.2955ZM25.5455 15.2955H13.5455V26.2955C13.5455 27.1205 14.2205 27.7955 15.0455 27.7955H23.0455C23.8705 27.7955 24.8705 27.1205 24.8705 26.2955V15.2955Z" fill="#99948E"/>
            </g>
        </svg>
        <!-- PDF -->
        <svg id="pdf" width="39" height="39" viewBox="0 0 39 39" fill="currentColor"
            xmlns="http://www.w3.org/2000/svg">
            <circle cx="19" cy="19" r="19" />
            <g clip-path="url(#clip0_1_244)">
                <path d="M25.7121 10.7121H15.7121C14.7955 10.7121 14.0455 11.4621 14.0455 12.3788V22.3788C14.0455 23.2955 14.7955 24.0455 15.7121 24.0455H25.7121C26.6288 24.0455 27.3788 23.2955 27.3788 22.3788V12.3788C27.3788 11.4621 26.6288 10.7121 25.7121 10.7121ZM25.7121 22.3788H15.7121V12.3788H25.7121V22.3788ZM12.3788 14.0455H10.7121V25.7121C10.7121 26.6288 11.4621 27.3788 12.3788 27.3788H24.0455V25.7121H12.3788V14.0455ZM22.3788 19.0455V16.5455C22.3788 16.0871 22.0038 15.7121 21.5455 15.7121H19.8788V19.8788H21.5455C22.0038 19.8788 22.3788 19.5038 22.3788 19.0455ZM20.7121 16.5455H21.5455V19.0455H20.7121V16.5455ZM24.0455 18.2121H24.8788V17.3788H24.0455V16.5455H24.8788V15.7121H23.2121V19.8788H24.0455V18.2121ZM17.3788 18.2121H18.2121C18.6705 18.2121 19.0455 17.8371 19.0455 17.3788V16.5455C19.0455 16.0871 18.6705 15.7121 18.2121 15.7121H16.5455V19.8788H17.3788V18.2121ZM17.3788 16.5455H18.2121V17.3788H17.3788V16.5455Z" fill="white"/>
            </g>
            <defs>
                <clipPath id="clip0_1_244">
                    <rect width="20" height="20" fill="white" transform="translate(9.04546 9.04547)"/>
                </clipPath>
            </defs>
        </svg>
        <!-- PDF Accionado -->
        <svg id="pdf_accionado" width="39" height="39" viewBox="0 0 39 39" fill="currentColor"
            xmlns="http://www.w3.org/2000/svg">
            <circle cx="19" cy="19" r="18.5" fill="white" stroke="currentColor"/>
            <g clip-path="url(#clip0_0_238)">
                <path d="M25.7121 10.7121H15.7121C14.7955 10.7121 14.0455 11.4621 14.0455 12.3788V22.3788C14.0455 23.2955 14.7955 24.0455 15.7121 24.0455H25.7121C26.6288 24.0455 27.3788 23.2955 27.3788 22.3788V12.3788C27.3788 11.4621 26.6288 10.7121 25.7121 10.7121ZM25.7121 22.3788H15.7121V12.3788H25.7121V22.3788ZM12.3788 14.0455H10.7121V25.7121C10.7121 26.6288 11.4621 27.3788 12.3788 27.3788H24.0455V25.7121H12.3788V14.0455ZM22.3788 19.0455V16.5455C22.3788 16.0871 22.0038 15.7121 21.5455 15.7121H19.8788V19.8788H21.5455C22.0038 19.8788 22.3788 19.5038 22.3788 19.0455ZM20.7121 16.5455H21.5455V19.0455H20.7121V16.5455ZM24.0455 18.2121H24.8788V17.3788H24.0455V16.5455H24.8788V15.7121H23.2121V19.8788H24.0455V18.2121ZM17.3788 18.2121H18.2121C18.6705 18.2121 19.0455 17.8371 19.0455 17.3788V16.5455C19.0455 16.0871 18.6705 15.7121 18.2121 15.7121H16.5455V19.8788H17.3788V18.2121ZM17.3788 16.5455H18.2121V17.3788H17.3788V16.5455Z" />
            </g>
            <defs>
                <clipPath id="clip0_0_238">
                    <rect width="20" height="20" fill="white" transform="translate(9.04546 9.04547)"/>
                </clipPath>
            </defs>
        </svg>
        <!-- PDF Disabled -->
        <svg id="pdf_disabled" width="39" height="39" viewBox="0 0 39 39" fill="none"
            xmlns="http://www.w3.org/2000/svg">
            <circle cx="19" cy="19" r="18.5" fill="white" stroke="#99948E"/>
            <g clip-path="url(#clip0_0_506)">
                <path d="M25.7121 10.7121H15.7121C14.7955 10.7121 14.0455 11.4621 14.0455 12.3788V22.3788C14.0455 23.2955 14.7955 24.0455 15.7121 24.0455H25.7121C26.6288 24.0455 27.3788 23.2955 27.3788 22.3788V12.3788C27.3788 11.4621 26.6288 10.7121 25.7121 10.7121ZM25.7121 22.3788H15.7121V12.3788H25.7121V22.3788ZM12.3788 14.0455H10.7121V25.7121C10.7121 26.6288 11.4621 27.3788 12.3788 27.3788H24.0455V25.7121H12.3788V14.0455ZM22.3788 19.0455V16.5455C22.3788 16.0871 22.0038 15.7121 21.5455 15.7121H19.8788V19.8788H21.5455C22.0038 19.8788 22.3788 19.5038 22.3788 19.0455ZM20.7121 16.5455H21.5455V19.0455H20.7121V16.5455ZM24.0455 18.2121H24.8788V17.3788H24.0455V16.5455H24.8788V15.7121H23.2121V19.8788H24.0455V18.2121ZM17.3788 18.2121H18.2121C18.6705 18.2121 19.0455 17.8371 19.0455 17.3788V16.5455C19.0455 16.0871 18.6705 15.7121 18.2121 15.7121H16.5455V19.8788H17.3788V18.2121ZM17.3788 16.5455H18.2121V17.3788H17.3788V16.5455Z" fill="#99948E"/>
            </g>
            <defs>
                <clipPath id="clip0_0_506">
                    <rect width="20" height="20" fill="white" transform="translate(9.04547 9.04547)"/>
                </clipPath>
            </defs>
        </svg>
        <!-- Imprimir -->
        <svg id="imprimir" width="39" height="39" viewBox="0 0 39 39" fill="currentColor"
            xmlns="http://www.w3.org/2000/svg">
            <circle cx="19" cy="19" r="19" />
            <g clip-path="url(#clip0_535_421)" transform="scale(0.8) translate(4.9, 4.9)">
                <path d="M26.5568 14.6818H25.4773V9.28409H12.5227V14.6818H11.4432C9.65115 14.6818 8.20456 16.1284 8.20456 17.9205V24.3977H12.5227V28.7159H25.4773V24.3977H29.7955V17.9205C29.7955 16.1284 28.3489 14.6818 26.5568 14.6818ZM14.6818 11.4432H23.3182V14.6818H14.6818V11.4432ZM23.3182 24.3977V26.5568H14.6818V22.2386H23.3182V24.3977ZM25.4773 22.2386V20.0795H12.5227V22.2386H10.3637V17.9205C10.3637 17.3267 10.8494 16.8409 11.4432 16.8409H26.5568C27.1506 16.8409 27.6364 17.3267 27.6364 17.9205V22.2386H25.4773Z" fill="white"/>
                <path d="M25.4773 19.5398C26.0735 19.5398 26.5568 19.0564 26.5568 18.4602C26.5568 17.864 26.0735 17.3807 25.4773 17.3807C24.8811 17.3807 24.3977 17.864 24.3977 18.4602C24.3977 19.0564 24.8811 19.5398 25.4773 19.5398Z" fill="white"/>
            </g>
            <defs>
                <clipPath id="clip0_535_421">
                    <rect width="25.9091" height="25.9091" fill="white" transform="translate(6.04547 6.04546)"/>
                </clipPath>
            </defs>
        </svg>
        <!-- Imprimir Accionado -->
        <svg id="imprimir_accionado" width="39" height="39" viewBox="0 0 39 39" fill="cuurentColor"
            xmlns="http://www.w3.org/2000/svg">
            <circle cx="19" cy="19" r="18.5" fill="white" stroke="currentColor"/>
            <g clip-path="url(#clip0_535_421)" transform="scale(0.8) translate(4.9, 4.9)">
                <path d="M26.5568 14.6818H25.4773V9.28409H12.5227V14.6818H11.4432C9.65115 14.6818 8.20456 16.1284 8.20456 17.9205V24.3977H12.5227V28.7159H25.4773V24.3977H29.7955V17.9205C29.7955 16.1284 28.3489 14.6818 26.5568 14.6818ZM14.6818 11.4432H23.3182V14.6818H14.6818V11.4432ZM23.3182 24.3977V26.5568H14.6818V22.2386H23.3182V24.3977ZM25.4773 22.2386V20.0795H12.5227V22.2386H10.3637V17.9205C10.3637 17.3267 10.8494 16.8409 11.4432 16.8409H26.5568C27.1506 16.8409 27.6364 17.3267 27.6364 17.9205V22.2386H25.4773Z" />
                <path d="M25.4773 19.5398C26.0735 19.5398 26.5568 19.0564 26.5568 18.4602C26.5568 17.864 26.0735 17.3807 25.4773 17.3807C24.8811 17.3807 24.3977 17.864 24.3977 18.4602C24.3977 19.0564 24.8811 19.5398 25.4773 19.5398Z" />
            </g>
            <defs>
                <clipPath id="clip0_535_421">
                    <rect width="25.9091" height="25.9091" fill="white" transform="translate(6.04547 6.04546)"/>
                </clipPath>
            </defs>
        </svg>
        <!-- Imprimir Disabled -->
        <svg id="imprimir_disabled" width="39" height="39" viewBox="0 0 39 39" fill="none"
            xmlns="http://www.w3.org/2000/svg">
            <circle cx="19" cy="19" r="18.5" fill="white" stroke="#A3A3A3"/>
            <g clip-path="url(#clip0_535_421)" transform="scale(0.8) translate(4.9, 4.9)">
                <path d="M26.5568 14.6818H25.4773V9.28409H12.5227V14.6818H11.4432C9.65115 14.6818 8.20456 16.1284 8.20456 17.9205V24.3977H12.5227V28.7159H25.4773V24.3977H29.7955V17.9205C29.7955 16.1284 28.3489 14.6818 26.5568 14.6818ZM14.6818 11.4432H23.3182V14.6818H14.6818V11.4432ZM23.3182 24.3977V26.5568H14.6818V22.2386H23.3182V24.3977ZM25.4773 22.2386V20.0795H12.5227V22.2386H10.3637V17.9205C10.3637 17.3267 10.8494 16.8409 11.4432 16.8409H26.5568C27.1506 16.8409 27.6364 17.3267 27.6364 17.9205V22.2386H25.4773Z" fill="#A3A3A3"/>
                <path d="M25.4773 19.5398C26.0735 19.5398 26.5568 19.0564 26.5568 18.4602C26.5568 17.864 26.0735 17.3807 25.4773 17.3807C24.8811 17.3807 24.3977 17.864 24.3977 18.4602C24.3977 19.0564 24.8811 19.5398 25.4773 19.5398Z" fill="#A3A3A3"/>
            </g>
            <defs>
                <clipPath id="clip0_535_421">
                    <rect width="25.9091" height="25.9091" fill="white" transform="translate(6.04547 6.04546)"/>
                </clipPath>
            </defs>
        </svg>
        <!-- Ver -->
        <svg id="ver" width="37" height="37" viewBox="0 0 37 37" fill="currentColor"
            xmlns="http://www.w3.org/2000/svg">
            <circle cx="18" cy="18" r="18" />
            <path d="M18 14.4545C20.7564 14.4545 23.2145 16.0036 24.4145 18.4545C23.2145 20.9055 20.7636 22.4545 18 22.4545C15.2364 22.4545 12.7855 20.9055 11.5855 18.4545C12.7855 16.0036 15.2436 14.4545 18 14.4545ZM18 13C14.3636 13 11.2582 15.2618 10 18.4545C11.2582 21.6473 14.3636 23.9091 18 23.9091C21.6364 23.9091 24.7418 21.6473 26 18.4545C24.7418 15.2618 21.6364 13 18 13ZM18 16.6364C19.0036 16.6364 19.8182 17.4509 19.8182 18.4545C19.8182 19.4582 19.0036 20.2727 18 20.2727C16.9964 20.2727 16.1818 19.4582 16.1818 18.4545C16.1818 17.4509 16.9964 16.6364 18 16.6364ZM18 15.1818C16.1964 15.1818 14.7273 16.6509 14.7273 18.4545C14.7273 20.2582 16.1964 21.7273 18 21.7273C19.8036 21.7273 21.2727 20.2582 21.2727 18.4545C21.2727 16.6509 19.8036 15.1818 18 15.1818Z" fill="white"/>
        </svg>
        <!-- Ver Accionado -->
        <svg id="ver_accionado" width="37" height="37" viewBox="0 0 37 37" fill="currentColor"
            xmlns="http://www.w3.org/2000/svg">
            <circle cx="18" cy="18" r="17.5" fill="white" stroke="currentColor"/>
            <path d="M18 14.4545C20.7564 14.4545 23.2145 16.0036 24.4145 18.4545C23.2145 20.9055 20.7636 22.4545 18 22.4545C15.2364 22.4545 12.7855 20.9055 11.5855 18.4545C12.7855 16.0036 15.2436 14.4545 18 14.4545ZM18 13C14.3636 13 11.2582 15.2618 10 18.4545C11.2582 21.6473 14.3636 23.9091 18 23.9091C21.6364 23.9091 24.7418 21.6473 26 18.4545C24.7418 15.2618 21.6364 13 18 13ZM18 16.6364C19.0036 16.6364 19.8182 17.4509 19.8182 18.4545C19.8182 19.4582 19.0036 20.2727 18 20.2727C16.9964 20.2727 16.1818 19.4582 16.1818 18.4545C16.1818 17.4509 16.9964 16.6364 18 16.6364ZM18 15.1818C16.1964 15.1818 14.7273 16.6509 14.7273 18.4545C14.7273 20.2582 16.1964 21.7273 18 21.7273C19.8036 21.7273 21.2727 20.2582 21.2727 18.4545C21.2727 16.6509 19.8036 15.1818 18 15.1818Z" />
        </svg>
        <!-- Ver Disabled -->
        <svg id="ver_disabled" width="37" height="37" viewBox="0 0 37 37" fill="none"
            xmlns="http://www.w3.org/2000/svg">
            <circle cx="18" cy="18" r="17.5" fill="white" stroke="#99948E"/>
            <path d="M18 14.4545C20.7564 14.4545 23.2145 16.0036 24.4145 18.4545C23.2145 20.9055 20.7636 22.4545 18 22.4545C15.2364 22.4545 12.7855 20.9055 11.5855 18.4545C12.7855 16.0036 15.2436 14.4545 18 14.4545ZM18 13C14.3636 13 11.2582 15.2618 10 18.4545C11.2582 21.6473 14.3636 23.9091 18 23.9091C21.6364 23.9091 24.7418 21.6473 26 18.4545C24.7418 15.2618 21.6364 13 18 13ZM18 16.6364C19.0036 16.6364 19.8182 17.4509 19.8182 18.4545C19.8182 19.4582 19.0036 20.2727 18 20.2727C16.9964 20.2727 16.1818 19.4582 16.1818 18.4545C16.1818 17.4509 16.9964 16.6364 18 16.6364ZM18 15.1818C16.1964 15.1818 14.7273 16.6509 14.7273 18.4545C14.7273 20.2582 16.1964 21.7273 18 21.7273C19.8036 21.7273 21.2727 20.2582 21.2727 18.4545C21.2727 16.6509 19.8036 15.1818 18 15.1818Z" fill="#99948E"/>
        </svg>
        <!--  Vista lista -->
        <svg id="vista_lista" width="37" height="37" viewBox="0 0 37 37" fill="none"
            xmlns="http://www.w3.org/2000/svg">
            <circle cx="18" cy="18" r="18" fill="currentColor"/>
            <path d="M10 19.3333H11.7778V17.5556H10V19.3333ZM10 22.8889H11.7778V21.1111H10V22.8889ZM10 15.7778H11.7778V14H10V15.7778ZM13.5556 19.3333H26V17.5556H13.5556V19.3333ZM13.5556 22.8889H26V21.1111H13.5556V22.8889ZM13.5556 14V15.7778H26V14H13.5556ZM10 19.3333H11.7778V17.5556H10V19.3333ZM10 22.8889H11.7778V21.1111H10V22.8889ZM10 15.7778H11.7778V14H10V15.7778ZM13.5556 19.3333H26V17.5556H13.5556V19.3333ZM13.5556 22.8889H26V21.1111H13.5556V22.8889ZM13.5556 14V15.7778H26V14H13.5556Z" fill="white"/>
        </svg>
        <!--  Vista lista Accionado -->
        <svg id="vista_lista_accionado" width="37" height="37" viewBox="0 0 37 37" fill="none"
            xmlns="http://www.w3.org/2000/svg">
            <circle cx="18" cy="18" r="17.5" fill="white" stroke="currentColor"/>
            <path d="M10 19.3333H11.7778V17.5556H10V19.3333ZM10 22.8889H11.7778V21.1111H10V22.8889ZM10 15.7778H11.7778V14H10V15.7778ZM13.5556 19.3333H26V17.5556H13.5556V19.3333ZM13.5556 22.8889H26V21.1111H13.5556V22.8889ZM13.5556 14V15.7778H26V14H13.5556ZM10 19.3333H11.7778V17.5556H10V19.3333ZM10 22.8889H11.7778V21.1111H10V22.8889ZM10 15.7778H11.7778V14H10V15.7778ZM13.5556 19.3333H26V17.5556H13.5556V19.3333ZM13.5556 22.8889H26V21.1111H13.5556V22.8889ZM13.5556 14V15.7778H26V14H13.5556Z" fill="#01B0EA"/>
        </svg>
        <!--  Vista lista Disabled -->
        <svg id="vista_lista_disabled" width="37" height="37" viewBox="0 0 37 37" fill="none"
            xmlns="http://www.w3.org/2000/svg">
            <circle cx="18" cy="18" r="17.5" fill="white" stroke="#99948E"/>
            <path d="M10 19.3333H11.7778V17.5556H10V19.3333ZM10 22.8889H11.7778V21.1111H10V22.8889ZM10 15.7778H11.7778V14H10V15.7778ZM13.5556 19.3333H26V17.5556H13.5556V19.3333ZM13.5556 22.8889H26V21.1111H13.5556V22.8889ZM13.5556 14V15.7778H26V14H13.5556ZM10 19.3333H11.7778V17.5556H10V19.3333ZM10 22.8889H11.7778V21.1111H10V22.8889ZM10 15.7778H11.7778V14H10V15.7778ZM13.5556 19.3333H26V17.5556H13.5556V19.3333ZM13.5556 22.8889H26V21.1111H13.5556V22.8889ZM13.5556 14V15.7778H26V14H13.5556Z" fill="#99948E"/>
        </svg>
        <!-- Credencial Usuario -->
        <svg id="credencial_usuario" width="39" height="39" viewBox="0 0 39 39" fill="currentColor"
            xmlns="http://www.w3.org/2000/svg">
            <circle cx="19" cy="19" r="19" />
            <path d="M21 9H13C11.9 9 11 9.9 11 11V27C11 28.1 11.9 29 13 29H25C26.1 29 27 28.1 27 27V15L21 9ZM19 17C20.1 17 21 17.9 21 19C21 20.1 20.1 21 19 21C17.9 21 17 20.1 17 19C17 17.9 17.9 17 19 17ZM23 25H15V24.43C15 23.62 15.48 22.9 16.22 22.58C17.07 22.21 18.01 22 19 22C19.99 22 20.93 22.21 21.78 22.58C22.52 22.9 23 23.62 23 24.43V25Z" fill="white"/>
        </svg>
        <!-- Credencial Usuario Accionado -->
        <svg id="credencial_usuario_accionado" width="39" height="39" viewBox="0 0 39 39" fill="currentColor"
            xmlns="http://www.w3.org/2000/svg">
            <circle cx="19" cy="19" r="18.5" fill="white" stroke="currentColor"/>
            <path d="M21 9H13C11.9 9 11 9.9 11 11V27C11 28.1 11.9 29 13 29H25C26.1 29 27 28.1 27 27V15L21 9ZM19 17C20.1 17 21 17.9 21 19C21 20.1 20.1 21 19 21C17.9 21 17 20.1 17 19C17 17.9 17.9 17 19 17ZM23 25H15V24.43C15 23.62 15.48 22.9 16.22 22.58C17.07 22.21 18.01 22 19 22C19.99 22 20.93 22.21 21.78 22.58C22.52 22.9 23 23.62 23 24.43V25Z" />
        </svg>
        <!-- Credencial Usuario Disabled -->
        <svg id="credencial_usuario_disabled" width="39" height="39" viewBox="0 0 39 39" fill="currentColor"
            xmlns="http://www.w3.org/2000/svg">
            <circle cx="19" cy="19" r="18.5" fill="white" stroke="currentColor"/>
            <path d="M21 9H13C11.9 9 11 9.9 11 11V27C11 28.1 11.9 29 13 29H25C26.1 29 27 28.1 27 27V15L21 9ZM19 17C20.1 17 21 17.9 21 19C21 20.1 20.1 21 19 21C17.9 21 17 20.1 17 19C17 17.9 17.9 17 19 17ZM23 25H15V24.43C15 23.62 15.48 22.9 16.22 22.58C17.07 22.21 18.01 22 19 22C19.99 22 20.93 22.21 21.78 22.58C22.52 22.9 23 23.62 23 24.43V25Z" fill="#99948E"/>
        </svg>
        <!-- Adjunto -->
        <svg id="adjunto" width="38" height="38" viewBox="0 0 38 38" fill="currentColor"
            xmlns="http://www.w3.org/2000/svg">
            <circle cx="19" cy="19" r="19"/>
            <path d="M17.1655 14.3901L24.3075 20.5157C25.68 21.6929 25.8382 23.758 24.661 25.1305C23.4838 26.503 21.4187 26.6612 20.0462 25.4841L12.2832 18.8258C11.4261 18.0907 11.3271 16.7986 12.0622 15.9415C12.7973 15.0845 14.0894 14.9855 14.9465 15.7206L21.4674 21.3135C21.809 21.6065 21.8488 22.1257 21.5558 22.4672C21.2628 22.8088 20.7437 22.8486 20.4021 22.5556L14.5022 17.4953L13.7032 18.4269L19.6031 23.4872C20.4601 24.2222 21.7523 24.1233 22.4874 23.2662C23.2224 22.4092 23.1234 21.117 22.2664 20.382L15.7455 14.789C14.373 13.6118 12.3078 13.77 11.1306 15.1425C9.95346 16.515 10.1117 18.5802 11.4842 19.7574L19.2472 26.4156C21.1352 28.0349 23.9733 27.8175 25.5926 25.9295C27.2119 24.0416 26.9944 21.2035 25.1065 19.5842L17.9645 13.4586L17.1655 14.3901Z" fill="white"/>
        </svg>
        <!-- Adjunto accionado -->
        <svg id="adjunto_accionado" width="38" height="38" viewBox="0 0 38 38" fill="currentColor"
            xmlns="http://www.w3.org/2000/svg">
            <circle cx="19" cy="19" r="19" fill="white" stroke="currentColor"/>
            <path d="M17.1655 14.3901L24.3075 20.5157C25.68 21.6929 25.8382 23.758 24.661 25.1305C23.4838 26.503 21.4187 26.6612 20.0462 25.4841L12.2832 18.8258C11.4261 18.0907 11.3271 16.7986 12.0622 15.9415C12.7973 15.0845 14.0894 14.9855 14.9465 15.7206L21.4674 21.3135C21.809 21.6065 21.8488 22.1257 21.5558 22.4672C21.2628 22.8088 20.7437 22.8486 20.4021 22.5556L14.5022 17.4953L13.7032 18.4269L19.6031 23.4872C20.4601 24.2222 21.7523 24.1233 22.4874 23.2662C23.2224 22.4092 23.1234 21.117 22.2664 20.382L15.7455 14.789C14.373 13.6118 12.3078 13.77 11.1306 15.1425C9.95346 16.515 10.1117 18.5802 11.4842 19.7574L19.2472 26.4156C21.1352 28.0349 23.9733 27.8175 25.5926 25.9295C27.2119 24.0416 26.9944 21.2035 25.1065 19.5842L17.9645 13.4586L17.1655 14.3901Z" fill="white"/>
        </svg>
        <!-- Adjunto Disabled -->
        <svg id="adjunto_disabled" width="38" height="38" viewBox="0 0 38 38" fill="currentColor"
            xmlns="http://www.w3.org/2000/svg">
            <circle cx="19" cy="19" r="18.5" fill="white" stroke="currentColor"/>
            <path d="M17.1655 14.3901L24.3075 20.5157C25.68 21.6929 25.8382 23.758 24.661 25.1305C23.4838 26.503 21.4187 26.6612 20.0462 25.4841L12.2832 18.8258C11.4261 18.0907 11.3271 16.7986 12.0622 15.9415C12.7973 15.0845 14.0894 14.9855 14.9465 15.7206L21.4674 21.3135C21.809 21.6065 21.8488 22.1257 21.5558 22.4672C21.2628 22.8088 20.7437 22.8486 20.4021 22.5556L14.5022 17.4953L13.7032 18.4269L19.6031 23.4872C20.4601 24.2222 21.7523 24.1233 22.4874 23.2662C23.2224 22.4092 23.1234 21.117 22.2664 20.382L15.7455 14.789C14.373 13.6118 12.3078 13.77 11.1306 15.1425C9.95346 16.515 10.1117 18.5802 11.4842 19.7574L19.2472 26.4156C21.1352 28.0349 23.9733 27.8175 25.5926 25.9295C27.2119 24.0416 26.9944 21.2035 25.1065 19.5842L17.9645 13.4586L17.1655 14.3901Z" fill="#99948E"/>
        </svg>
        <!-- Imagenes -->
        <svg id="imagenes" width="38" height="38" viewBox="0 0 38 38" fill="currentColor"
            xmlns="http://www.w3.org/2000/svg">
            <circle cx="19" cy="19" r="19"/>
            <path d="M21.85 18.8875C23.6125 18.8875 25.075 17.4625 25.075 15.6625C25.075 13.8625 23.65 12.4375 21.85 12.4375C20.05 12.4375 18.625 13.9375 18.625 15.7C18.625 17.4625 20.0875 18.8875 21.85 18.8875ZM21.85 14.1625C22.675 14.1625 23.3875 14.8375 23.3875 15.7C23.3875 16.5625 22.7125 17.2375 21.85 17.2375C20.9875 17.2375 20.3125 16.5625 20.3125 15.7C20.3125 14.8375 20.9875 14.1625 21.85 14.1625Z" fill="white"/>
            <path d="M26.7625 7.67499H11.2375C9.9625 7.67499 8.9125 8.72499 8.9125 9.99999V28C8.9125 29.275 9.9625 30.3625 11.275 30.3625H26.7625C28.0375 30.3625 29.125 29.3125 29.125 28V9.99999C29.0875 8.72499 28.0375 7.67499 26.7625 7.67499ZM11.2375 9.36249H26.725C27.1 9.36249 27.4 9.66249 27.4 10.0375V23.125L24.6625 20.875C23.875 20.2375 22.75 20.275 22.0375 20.9875L18.9625 24.025L15.025 20.5C14.275 19.825 13.15 19.825 12.4 20.5L10.6 22.1125V9.99999C10.6 9.62499 10.9 9.36249 11.2375 9.36249ZM26.7625 28.675H11.2375C10.8625 28.675 10.5625 28.375 10.5625 28V24.3625L13.4875 21.7C13.6 21.5875 13.75 21.5875 13.8625 21.7L18.4 25.75C18.55 25.9 18.775 25.975 18.9625 25.975C19.1875 25.975 19.375 25.9 19.5625 25.7125L23.2 22.1125C23.3125 22 23.4625 22 23.575 22.1125L27.3625 25.2625V28C27.4 28.375 27.1 28.675 26.7625 28.675Z" fill="white"/>
        </svg>
        <!-- Imagenes accionado -->
        <svg id="imagenes_accionado" width="38" height="38" viewBox="0 0 38 38" fill="currentColor"
            xmlns="http://www.w3.org/2000/svg">
            <circle cx="19" cy="19" r="18.5" fill="white" stroke="currentColor"/>
            <path d="M21.85 18.8875C23.6125 18.8875 25.075 17.4625 25.075 15.6625C25.075 13.8625 23.65 12.4375 21.85 12.4375C20.05 12.4375 18.625 13.9375 18.625 15.7C18.625 17.4625 20.0875 18.8875 21.85 18.8875ZM21.85 14.1625C22.675 14.1625 23.3875 14.8375 23.3875 15.7C23.3875 16.5625 22.7125 17.2375 21.85 17.2375C20.9875 17.2375 20.3125 16.5625 20.3125 15.7C20.3125 14.8375 20.9875 14.1625 21.85 14.1625Z" fill="#01B0EA"/>
            <path d="M26.7625 7.67499H11.2375C9.96251 7.67499 8.91251 8.72499 8.91251 9.99999V28C8.91251 29.275 9.96251 30.3625 11.275 30.3625H26.7625C28.0375 30.3625 29.125 29.3125 29.125 28V9.99999C29.0875 8.72499 28.0375 7.67499 26.7625 7.67499ZM11.2375 9.36249H26.725C27.1 9.36249 27.4 9.66249 27.4 10.0375V23.125L24.6625 20.875C23.875 20.2375 22.75 20.275 22.0375 20.9875L18.9625 24.025L15.025 20.5C14.275 19.825 13.15 19.825 12.4 20.5L10.6 22.1125V9.99999C10.6 9.62499 10.9 9.36249 11.2375 9.36249ZM26.7625 28.675H11.2375C10.8625 28.675 10.5625 28.375 10.5625 28V24.3625L13.4875 21.7C13.6 21.5875 13.75 21.5875 13.8625 21.7L18.4 25.75C18.55 25.9 18.775 25.975 18.9625 25.975C19.1875 25.975 19.375 25.9 19.5625 25.7125L23.2 22.1125C23.3125 22 23.4625 22 23.575 22.1125L27.3625 25.2625V28C27.4 28.375 27.1 28.675 26.7625 28.675Z" fill="#01B0EA"/>
        </svg>
        <!-- Imagenes Disabled -->
        <svg id="imagenes_disabled" width="38" height="38" viewBox="0 0 38 38" fill="currentColor"
            xmlns="http://www.w3.org/2000/svg">
            <circle cx="19" cy="19" r="18.5" fill="white" stroke="currentColor"/>
            <path d="M21.85 18.8875C23.6125 18.8875 25.075 17.4625 25.075 15.6625C25.075 13.8625 23.65 12.4375 21.85 12.4375C20.05 12.4375 18.625 13.9375 18.625 15.7C18.625 17.4625 20.0875 18.8875 21.85 18.8875ZM21.85 14.1625C22.675 14.1625 23.3875 14.8375 23.3875 15.7C23.3875 16.5625 22.7125 17.2375 21.85 17.2375C20.9875 17.2375 20.3125 16.5625 20.3125 15.7C20.3125 14.8375 20.9875 14.1625 21.85 14.1625Z" fill="#99948E"/>
            <path d="M26.7625 7.67499H11.2375C9.96251 7.67499 8.91251 8.72499 8.91251 9.99999V28C8.91251 29.275 9.96251 30.3625 11.275 30.3625H26.7625C28.0375 30.3625 29.125 29.3125 29.125 28V9.99999C29.0875 8.72499 28.0375 7.67499 26.7625 7.67499ZM11.2375 9.36249H26.725C27.1 9.36249 27.4 9.66249 27.4 10.0375V23.125L24.6625 20.875C23.875 20.2375 22.75 20.275 22.0375 20.9875L18.9625 24.025L15.025 20.5C14.275 19.825 13.15 19.825 12.4 20.5L10.6 22.1125V9.99999C10.6 9.62499 10.9 9.36249 11.2375 9.36249ZM26.7625 28.675H11.2375C10.8625 28.675 10.5625 28.375 10.5625 28V24.3625L13.4875 21.7C13.6 21.5875 13.75 21.5875 13.8625 21.7L18.4 25.75C18.55 25.9 18.775 25.975 18.9625 25.975C19.1875 25.975 19.375 25.9 19.5625 25.7125L23.2 22.1125C23.3125 22 23.4625 22 23.575 22.1125L27.3625 25.2625V28C27.4 28.375 27.1 28.675 26.7625 28.675Z" fill="#99948E"/>
        </svg>
        <!-- Enviar -->
        <svg id="enviar" width="38" height="38" viewBox="0 0 38 38" fill="currentColor"
            xmlns="http://www.w3.org/2000/svg">
            <circle cx="19" cy="19" r="19"/>
            <path d="M28.5763 19.1052C28.4453 18.8963 28.2489 18.7471 28.0197 18.6277L12.9273 10.9295C12.6654 10.8101 12.3707 10.7505 12.0761 10.7803C11.7814 10.8101 11.5195 10.8997 11.2903 11.0787C11.0612 11.2577 10.8975 11.4964 10.832 11.7351C10.7338 12.0037 10.7665 12.2722 10.8647 12.5408L13.6803 19.7914L10.8647 27.0421C10.7665 27.3106 10.7665 27.5792 10.832 27.8179C10.8975 28.0864 11.0612 28.2953 11.2903 28.4743C11.5195 28.6534 11.7814 28.7429 12.0761 28.7727C12.1088 28.7727 12.1743 28.7727 12.207 28.7727C12.4362 28.7727 12.6981 28.713 12.9273 28.5937L28.0197 20.8954C28.2489 20.7761 28.4453 20.6269 28.5763 20.418C28.7072 20.2092 28.7727 19.9705 28.7727 19.7616C28.7727 19.5527 28.7072 19.314 28.5763 19.1052ZM12.2725 12.123L25.9572 19.1052H14.9898L12.2725 12.123ZM12.2725 27.4598L15.0225 20.4777H25.9899L12.2725 27.4598Z" fill="white"/>
        </svg>
        <!-- Enviar Accionado -->
        <svg id="enviar_accionado" width="38" height="38" viewBox="0 0 38 38" fill="currentColor"
            xmlns="http://www.w3.org/2000/svg">
            <circle cx="19" cy="19" r="18.5" fill="white" stroke="currentColor"/>
            <path d="M11.3016 11.9069L11.3087 11.8874L11.3142 11.8674C11.341 11.7697 11.4072 11.6533 11.5124 11.5485L11.8065 12.3044L14.5238 19.2865L14.6479 19.6052H14.9898H25.9572L26.1844 18.6598L12.4997 11.6776L11.8384 11.3402C11.9237 11.3092 12.0187 11.2887 12.1264 11.2778C12.3185 11.2583 12.5211 11.2956 12.7107 11.3803L27.7888 19.0712C27.7894 19.0715 27.7899 19.0718 27.7905 19.0721C27.9742 19.168 28.0862 19.2648 28.1527 19.3708C28.2354 19.5028 28.2727 19.6499 28.2727 19.7616C28.2727 19.8733 28.2354 20.0204 28.1527 20.1524C28.0862 20.2583 27.9742 20.3551 27.7905 20.4511C27.7899 20.4514 27.7894 20.4517 27.7888 20.452L12.7001 28.1483L12.7001 28.1483L12.6963 28.1502C12.5395 28.2319 12.3569 28.2727 12.207 28.2727H12.2068H12.2066H12.2064H12.2063H12.2061H12.2059H12.2057H12.2055H12.2053H12.2051H12.2049H12.2047H12.2045H12.2043H12.2041H12.2039H12.2037H12.2035H12.2032H12.203H12.2028H12.2026H12.2024H12.2022H12.202H12.2018H12.2016H12.2014H12.2012H12.2009H12.2007H12.2005H12.2003H12.2001H12.1999H12.1997H12.1994H12.1992H12.199H12.1988H12.1986H12.1983H12.1981H12.1979H12.1977H12.1975H12.1972H12.197H12.1968H12.1966H12.1963H12.1961H12.1959H12.1956H12.1954H12.1952H12.195H12.1947H12.1945H12.1943H12.194H12.1938H12.1936H12.1933H12.1931H12.1929H12.1926H12.1924H12.1922H12.1919H12.1917H12.1915H12.1912H12.191H12.1907H12.1905H12.1903H12.19H12.1898H12.1895H12.1893H12.189H12.1888H12.1886H12.1883H12.1881H12.1878H12.1876H12.1873H12.1871H12.1868H12.1866H12.1863H12.1861H12.1858H12.1856H12.1853H12.1851H12.1848H12.1846H12.1843H12.1841H12.1838H12.1836H12.1833H12.1831H12.1828H12.1826H12.1823H12.182H12.1818H12.1815H12.1813H12.181H12.1808H12.1805H12.1802H12.18H12.1797H12.1795H12.1792H12.1789H12.1787H12.1784H12.1781H12.1779H12.1776H12.1774H12.1771H12.1768H12.1766H12.1763H12.176H12.1758H12.1755H12.1752H12.175H12.1747H12.1744H12.1742H12.1739H12.1736H12.1734H12.1731H12.1728H12.1725H12.1723H12.172H12.1717H12.1715H12.1712H12.1709H12.1707H12.1704H12.1701H12.1698H12.1696H12.1693H12.169H12.1687H12.1685H12.1682H12.1679H12.1676H12.1674H12.1671H12.1668H12.1665H12.1663H12.166H12.1657H12.1654H12.1652H12.1649H12.1646H12.1643H12.164H12.1638H12.1635H12.1632H12.1629H12.1626H12.1624H12.1621H12.1618H12.1615H12.1612H12.161H12.1607H12.1604H12.1601H12.1598H12.1596H12.1593H12.159H12.1587H12.1584H12.1581H12.1579H12.1576H12.1573H12.157H12.1567H12.1564H12.1562H12.1559H12.1556H12.1553H12.155H12.1547H12.1545H12.1542H12.1539H12.1536H12.1533H12.153H12.1527H12.1525H12.1522H12.1519H12.1516H12.1513H12.151H12.1507H12.1505H12.1502H12.1499H12.1496H12.1493H12.149H12.1487H12.1484H12.1482H12.1479H12.1476H12.1473H12.147H12.1467H12.1464H12.1461H12.1459H12.1456H12.1453H12.145H12.1447H12.1444H12.1441H12.1438H12.1436H12.1433H12.143H12.1427H12.1424H12.1421H12.1418H12.1415H12.1413H12.141H12.1407H12.1404H12.1401H12.1398H12.1395H12.1392H12.139H12.1387H12.1384H12.1381H12.1378H12.1375H12.1372H12.1369H12.1367H12.1364H12.1361H12.1358H12.1355H12.1352H12.1349H12.1346H12.1344H12.1341H12.1338H12.1335H12.1332H12.1329H12.1326H12.1324H12.1321H12.1318H12.1315H12.1312H12.1309H12.1306H12.1304H12.1301H12.1298H12.1295H12.1292H12.1289H12.1286H12.1284H12.1281H12.1278H12.1275H12.1272H12.1269H12.1267H12.1264H12.1261H12.1258H12.1255H12.1252H12.125H12.1247H12.1244H12.1241H12.1238H12.1235H12.1233H12.123H12.1227H12.1224H12.1221H12.1219H12.1216H12.1213H12.121H12.1207H12.1205H12.1202H12.1199H12.1196H12.1193H12.1191H12.1188H12.1185H12.1182H12.1179H12.1177H12.1174H12.1171H12.1168H12.1166H12.1163H12.116H12.1157H12.1155H12.1152H12.1149H12.1146H12.1144H12.1141H12.1138H12.1135H12.1133H12.113H12.1127H12.1124H12.1122H12.1119H12.1116H12.1114H12.1111H12.1108H12.1105H12.1103H12.11H12.1097H12.1095H12.1092H12.1089H12.1087H12.1084H12.1081H12.1079H12.1076H12.1073H12.1071H12.1068H12.1065H12.1063H12.106H12.1057H12.1055H12.1052H12.1049H12.1047H12.1044H12.1042H12.1039H12.1036H12.1034H12.1031H12.103C12.0188 28.2629 11.9425 28.247 11.8725 28.2245L12.4993 27.9054L26.2167 20.9233L25.9899 19.9777H15.0225H14.6821L14.5573 20.2945L11.8073 27.2766L11.5176 28.0121C11.4019 27.9053 11.3435 27.8049 11.3178 27.6994L11.3161 27.6925L11.3142 27.6856C11.2746 27.5414 11.2742 27.381 11.3328 27.2179L14.1463 19.9724L14.2166 19.7914L14.1463 19.6104L11.3328 12.3647C11.2606 12.1654 11.2578 12.0265 11.3016 11.9069Z" fill="#FFA235" stroke="#01B0EA"/>
        </svg>
        <!-- Enviar Disabled -->
        <svg id="enviar_disabled" width="38" height="38" viewBox="0 0 38 38" fill="currentColor"
            xmlns="http://www.w3.org/2000/svg">
            <circle cx="19" cy="19" r="18.5" fill="white" stroke="currentColor"/>
            <path d="M28.5763 19.1052C28.4453 18.8963 28.2489 18.7471 28.0197 18.6277L12.9273 10.9295C12.6654 10.8101 12.3707 10.7505 12.0761 10.7803C11.7814 10.8101 11.5195 10.8997 11.2903 11.0787C11.0612 11.2577 10.8975 11.4964 10.832 11.7351C10.7338 12.0037 10.7665 12.2722 10.8647 12.5408L13.6803 19.7914L10.8647 27.0421C10.7665 27.3106 10.7665 27.5792 10.832 27.8179C10.8975 28.0864 11.0612 28.2953 11.2903 28.4743C11.5195 28.6534 11.7814 28.7429 12.0761 28.7727C12.1088 28.7727 12.1743 28.7727 12.207 28.7727C12.4362 28.7727 12.6981 28.713 12.9273 28.5937L28.0197 20.8954C28.2489 20.7761 28.4453 20.6269 28.5763 20.418C28.7072 20.2092 28.7727 19.9705 28.7727 19.7616C28.7727 19.5527 28.7072 19.314 28.5763 19.1052ZM12.2725 12.123L25.9572 19.1052H14.9898L12.2725 12.123ZM12.2725 27.4598L15.0225 20.4777H25.9899L12.2725 27.4598Z" fill="#99948E"/>
        </svg>
        <!-- Cotizar -->
        <svg id="cotizar" width="38" height="38" viewBox="0 0 38 38" fill="currentColor"
            xmlns="http://www.w3.org/2000/svg">
            <circle cx="19" cy="19" r="19"/>
            <path d="M18.8955 18.2205C17.193 17.778 16.6455 17.3205 16.6455 16.608C16.6455 15.7905 17.403 15.2205 18.6705 15.2205C20.0055 15.2205 20.5005 15.858 20.5455 16.7955H22.203C22.1505 15.5055 21.363 14.3205 19.7955 13.938V12.2955H17.5455V13.9155C16.0905 14.2305 14.9205 15.1755 14.9205 16.623C14.9205 18.3555 16.353 19.218 18.4455 19.7205C20.3205 20.1705 20.6955 20.8305 20.6955 21.528C20.6955 22.0455 20.328 22.8705 18.6705 22.8705C17.1255 22.8705 16.518 22.1805 16.4355 21.2955H14.7855C14.8755 22.938 16.1055 23.8605 17.5455 24.168V25.7955H19.7955V24.183C21.258 23.9055 22.4205 23.058 22.4205 21.5205C22.4205 19.3905 20.598 18.663 18.8955 18.2205Z" fill="white"/>
        </svg>
        <!-- Cotizar Accionado-->
        <svg id="cotizar_accionado" width="38" height="38" viewBox="0 0 38 38" fill="currentColor"
            xmlns="http://www.w3.org/2000/svg">
            <circle cx="19" cy="19" r="19" fill="currentColor"/>
        </svg>
        <!-- Cotizar Disabled-->
        <svg id="cotizar_disabled" width="38" height="38" viewBox="0 0 38 38" fill="currentColor"
            xmlns="http://www.w3.org/2000/svg">
            <circle cx="19" cy="19" r="18.5" fill="white" stroke="currentColor"/>
            <path d="M18.8955 18.2205C17.193 17.778 16.6455 17.3205 16.6455 16.608C16.6455 15.7905 17.403 15.2205 18.6705 15.2205C20.0055 15.2205 20.5005 15.858 20.5455 16.7955H22.203C22.1505 15.5055 21.363 14.3205 19.7955 13.938V12.2955H17.5455V13.9155C16.0905 14.2305 14.9205 15.1755 14.9205 16.623C14.9205 18.3555 16.353 19.218 18.4455 19.7205C20.3205 20.1705 20.6955 20.8305 20.6955 21.528C20.6955 22.0455 20.328 22.8705 18.6705 22.8705C17.1255 22.8705 16.518 22.1805 16.4355 21.2955H14.7855C14.8755 22.938 16.1055 23.8605 17.5455 24.168V25.7955H19.7955V24.183C21.258 23.9055 22.4205 23.058 22.4205 21.5205C22.4205 19.3905 20.598 18.663 18.8955 18.2205Z" fill="#99948E"/>
        </svg>

    </defs>
</svg>