<svg xmlns="http://www.w3.org/2000/svg">
    <defs>
        <!-- Editar No Accionado -->
        <svg id="editar" width="39" height="39" viewBox="0 0 39 39" fill="currentColor" xmlns="http://www.w3.org/2000/svg">
            <circle cx="19" cy="19" r="19" />
            <path d="M14.2509 24.7263H15.4766L23.0274 17.1754L21.8018 15.9498L14.2509 23.5006V24.7263ZM26.77 15.906L23.0493 12.229L24.275 11.0034C24.6106 10.6678 25.0229 10.5 25.512 10.5C26.0005 10.5 26.4126 10.6678 26.7482 11.0034L27.9738 12.229C28.3094 12.5646 28.4845 12.9697 28.4991 13.4442C28.5137 13.9181 28.3532 14.3229 28.0176 14.6584L26.77 15.906ZM25.5006 17.1973L16.2207 26.4772H12.5V22.7565L21.7799 13.4766L25.5006 17.1973ZM22.4146 16.5626L21.8018 15.9498L23.0274 17.1754L22.4146 16.5626Z" fill="white"/>
        </svg>
        <!-- Editar Accionado -->
        <svg id="editar_accionado" width="39" height="39" viewBox="0 0 39 39" fill="currentColor" xmlns="http://www.w3.org/2000/svg">
            <circle cx="19" cy="19" r="18.5" fill="white" stroke="currentColor" />
            <path d="M14.2509 24.7263H15.4766L23.0274 17.1754L21.8018 15.9498L14.2509 23.5006V24.7263ZM26.77 15.906L23.0493 12.229L24.275 11.0034C24.6106 10.6678 25.0229 10.5 25.512 10.5C26.0005 10.5 26.4126 10.6678 26.7482 11.0034L27.9738 12.229C28.3094 12.5646 28.4845 12.9697 28.4991 13.4442C28.5137 13.9181 28.3532 14.3229 28.0176 14.6584L26.77 15.906ZM25.5006 17.1973L16.2207 26.4772H12.5V22.7565L21.7799 13.4766L25.5006 17.1973ZM22.4146 16.5626L21.8018 15.9498L23.0274 17.1754L22.4146 16.5626Z"/>
        </svg>
        <!-- Editar Disabled -->
        <svg id="editar_disabled" width="39" height="39" viewBox="0 0 39 39" fill="none" xmlns="http://www.w3.org/2000/svg">
            <circle cx="19" cy="19" r="18.5" fill="white" stroke="#99948E"/>
            <path d="M14.2509 24.7263H15.4766L23.0274 17.1754L21.8018 15.9498L14.2509 23.5006V24.7263ZM26.77 15.906L23.0493 12.229L24.275 11.0034C24.6106 10.6678 25.0229 10.5 25.512 10.5C26.0005 10.5 26.4126 10.6678 26.7482 11.0034L27.9738 12.229C28.3094 12.5646 28.4845 12.9697 28.4991 13.4442C28.5137 13.9181 28.3532 14.3229 28.0176 14.6584L26.77 15.906ZM25.5006 17.1973L16.2207 26.4772H12.5V22.7565L21.7799 13.4766L25.5006 17.1973ZM22.4146 16.5626L21.8018 15.9498L23.0274 17.1754L22.4146 16.5626Z" fill="#99948E"/>
        </svg>
         <!-- Lector_qr No Accionado -->
        <svg id="lector_qr" width="38" height="38" viewBox="0 0 38 38" fill="currentColor" xmlns="http://www.w3.org/2000/svg">
            <circle cx="19" cy="19" r="19"/>
            <path d="M13.6667 13.6667H17.6667V17.6667H13.6667V13.6667ZM24.3333 13.6667V17.6667H20.3333V13.6667H24.3333ZM20.3333 21H21.6667V19.6667H20.3333V18.3333H21.6667V19.6667H23V18.3333H24.3333V19.6667H23V21H24.3333V23H23V24.3333H21.6667V23H19.6667V24.3333H18.3333V21.6667H20.3333V21ZM21.6667 21V23H23V21H21.6667ZM13.6667 24.3333V20.3333H17.6667V24.3333H13.6667ZM15 15V16.3333H16.3333V15H15ZM21.6667 15V16.3333H23V15H21.6667ZM15 21.6667V23H16.3333V21.6667H15ZM13.6667 18.3333H15V19.6667H13.6667V18.3333ZM17 18.3333H19.6667V21H18.3333V19.6667H17V18.3333ZM18.3333 15H19.6667V17.6667H18.3333V15ZM12.3333 12.3333V15H11V12.3333C11 11.9797 11.1405 11.6406 11.3905 11.3905C11.6406 11.1405 11.9797 11 12.3333 11H15V12.3333H12.3333ZM25.6667 11C26.0203 11 26.3594 11.1405 26.6095 11.3905C26.8595 11.6406 27 11.9797 27 12.3333V15H25.6667V12.3333H23V11H25.6667ZM12.3333 23V25.6667H15V27H12.3333C11.9797 27 11.6406 26.8595 11.3905 26.6095C11.1405 26.3594 11 26.0203 11 25.6667V23H12.3333ZM25.6667 25.6667V23H27V25.6667C27 26.0203 26.8595 26.3594 26.6095 26.6095C26.3594 26.8595 26.0203 27 25.6667 27H23V25.6667H25.6667Z" fill="white"/>
        </svg>
   <!-- Lector_qr Accionado -->
        <svg id="lector_accionado" width="38" height="38" viewBox="0 0 38 38" fill="none" xmlns="http://www.w3.org/2000/svg">
            <circle cx="19" cy="19" r="18.5" fill="white" stroke="#01B0EA"/>
            <path d="M13.6667 13.6667H17.6667V17.6667H13.6667V13.6667ZM24.3333 13.6667V17.6667H20.3333V13.6667H24.3333ZM20.3333 21H21.6667V19.6667H20.3333V18.3333H21.6667V19.6667H23V18.3333H24.3333V19.6667H23V21H24.3333V23H23V24.3333H21.6667V23H19.6667V24.3333H18.3333V21.6667H20.3333V21ZM21.6667 21V23H23V21H21.6667ZM13.6667 24.3333V20.3333H17.6667V24.3333H13.6667ZM15 15V16.3333H16.3333V15H15ZM21.6667 15V16.3333H23V15H21.6667ZM15 21.6667V23H16.3333V21.6667H15ZM13.6667 18.3333H15V19.6667H13.6667V18.3333ZM17 18.3333H19.6667V21H18.3333V19.6667H17V18.3333ZM18.3333 15H19.6667V17.6667H18.3333V15ZM12.3333 12.3333V15H11V12.3333C11 11.9797 11.1405 11.6406 11.3905 11.3905C11.6406 11.1405 11.9797 11 12.3333 11H15V12.3333H12.3333ZM25.6667 11C26.0203 11 26.3594 11.1405 26.6095 11.3905C26.8595 11.6406 27 11.9797 27 12.3333V15H25.6667V12.3333H23V11H25.6667ZM12.3333 23V25.6667H15V27H12.3333C11.9797 27 11.6406 26.8595 11.3905 26.6095C11.1405 26.3594 11 26.0203 11 25.6667V23H12.3333ZM25.6667 25.6667V23H27V25.6667C27 26.0203 26.8595 26.3594 26.6095 26.6095C26.3594 26.8595 26.0203 27 25.6667 27H23V25.6667H25.6667Z" fill="#01B0EA"/>
        </svg>
  <!-- Lector_qr Disabled -->
        <svg id="lector_qr_disabled" width="38" height="38" viewBox="0 0 38 38" fill="none" xmlns="http://www.w3.org/2000/svg">
            <circle cx="19" cy="19" r="18.5" fill="white" stroke="#99948E"/>
            <path d="M13.6667 13.6667H17.6667V17.6667H13.6667V13.6667ZM24.3333 13.6667V17.6667H20.3333V13.6667H24.3333ZM20.3333 21H21.6667V19.6667H20.3333V18.3333H21.6667V19.6667H23V18.3333H24.3333V19.6667H23V21H24.3333V23H23V24.3333H21.6667V23H19.6667V24.3333H18.3333V21.6667H20.3333V21ZM21.6667 21V23H23V21H21.6667ZM13.6667 24.3333V20.3333H17.6667V24.3333H13.6667ZM15 15V16.3333H16.3333V15H15ZM21.6667 15V16.3333H23V15H21.6667ZM15 21.6667V23H16.3333V21.6667H15ZM13.6667 18.3333H15V19.6667H13.6667V18.3333ZM17 18.3333H19.6667V21H18.3333V19.6667H17V18.3333ZM18.3333 15H19.6667V17.6667H18.3333V15ZM12.3333 12.3333V15H11V12.3333C11 11.9797 11.1405 11.6406 11.3905 11.3905C11.6406 11.1405 11.9797 11 12.3333 11H15V12.3333H12.3333ZM25.6667 11C26.0203 11 26.3594 11.1405 26.6095 11.3905C26.8595 11.6406 27 11.9797 27 12.3333V15H25.6667V12.3333H23V11H25.6667ZM12.3333 23V25.6667H15V27H12.3333C11.9797 27 11.6406 26.8595 11.3905 26.6095C11.1405 26.3594 11 26.0203 11 25.6667V23H12.3333ZM25.6667 25.6667V23H27V25.6667C27 26.0203 26.8595 26.3594 26.6095 26.6095C26.3594 26.8595 26.0203 27 25.6667 27H23V25.6667H25.6667Z" fill="#99948E"/>
        </svg>
        <!-- Unidad de Medida -->
        <svg id="unidad_medida" width="39" height="39" viewBox="0 0 39 39" fill="currentColor" xmlns="http://www.w3.org/2000/svg">
            <circle cx="19" cy="19" r="19" />
            <path d="M25.9492 25H13.0684C12.5043 25 12.0185 24.7963 11.6111 24.3889C11.2037 23.9815 11 23.4957 11 22.9316V10.0508C11 9.5964 11.2115 9.27892 11.6346 9.0984C12.0577 8.91851 12.426 8.98527 12.7394 9.29867L14.8548 11.4141L13.5855 12.6834L14.2437 13.3415L15.513 12.0723L17.9575 14.5168L16.6882 15.786L17.3463 16.4442L18.6156 15.1749L21.0601 17.6194L19.7909 18.8887L20.449 19.5468L21.7183 18.2776L24.1628 20.7221L22.8935 21.9914L23.5517 22.6495L24.8209 21.3802L26.7013 23.2606C27.0147 23.574 27.0815 23.9423 26.9016 24.3654C26.7211 24.7885 26.4036 25 25.9492 25ZM13.8206 14.3757V22.1794H21.6243L13.8206 14.3757Z" fill="white"/>
        </svg>
        <!-- Unidad de Medida Accionado -->
        <svg id="unidad_medida_accionado" width="39" height="39" viewBox="0 0 39 39" fill="currentColor" xmlns="http://www.w3.org/2000/svg">
            <circle cx="19" cy="19" r="18.5" fill="white" stroke="currentColor"/>
            <path d="M25.9492 25H13.0684C12.5043 25 12.0185 24.7963 11.6111 24.3889C11.2037 23.9815 11 23.4957 11 22.9316V10.0508C11 9.5964 11.2115 9.27892 11.6346 9.0984C12.0577 8.91851 12.426 8.98527 12.7394 9.29867L14.8548 11.4141L13.5855 12.6834L14.2437 13.3415L15.513 12.0723L17.9575 14.5168L16.6882 15.786L17.3463 16.4442L18.6156 15.1749L21.0601 17.6194L19.7909 18.8887L20.449 19.5468L21.7183 18.2776L24.1628 20.7221L22.8935 21.9914L23.5517 22.6495L24.8209 21.3802L26.7013 23.2606C27.0147 23.574 27.0815 23.9423 26.9016 24.3654C26.7211 24.7885 26.4036 25 25.9492 25ZM13.8206 14.3757V22.1794H21.6243L13.8206 14.3757Z" />
        </svg>
        <!-- Unidad de Medida Disabled -->
        <svg id="unidad_medida_disabled" width="39" height="39" viewBox="0 0 39 39" fill="none" xmlns="http://www.w3.org/2000/svg">
            <circle cx="19" cy="19" r="18.5" fill="white" stroke="#99948E"/>
            <path d="M25.9492 25H13.0684C12.5043 25 12.0185 24.7963 11.6111 24.3889C11.2037 23.9815 11 23.4957 11 22.9316V10.0508C11 9.5964 11.2115 9.27892 11.6346 9.0984C12.0577 8.91851 12.426 8.98527 12.7394 9.29867L14.8548 11.4141L13.5855 12.6834L14.2437 13.3415L15.513 12.0723L17.9575 14.5168L16.6882 15.786L17.3463 16.4442L18.6156 15.1749L21.0601 17.6194L19.7909 18.8887L20.449 19.5468L21.7183 18.2776L24.1628 20.7221L22.8935 21.9914L23.5517 22.6495L24.8209 21.3802L26.7013 23.2606C27.0147 23.574 27.0815 23.9423 26.9016 24.3654C26.7211 24.7885 26.4036 25 25.9492 25ZM13.8206 14.3757V22.1794H21.6243L13.8206 14.3757Z" fill="#99948E"/>
        </svg>
        <!-- Stock -->
        <svg id="stock" width="39" height="39" viewBox="0 0 39 39" fill="currentColor" xmlns="http://www.w3.org/2000/svg">
            <circle cx="19" cy="19" r="19" />
            <path d="M13.3333 28.8889C12.4074 28.8889 11.6204 28.5648 10.9722 27.9167C10.3241 27.2685 10 26.4815 10 25.5556V16.6667C10 16.3519 10.1065 16.088 10.3194 15.875C10.5324 15.662 10.7963 15.5556 11.1111 15.5556H28.8889C29.2037 15.5556 29.4676 15.662 29.6806 15.875C29.8935 16.088 30 16.3519 30 16.6667V25.5556C30 26.4815 29.6759 27.2685 29.0278 27.9167C28.3796 28.5648 27.5926 28.8889 26.6667 28.8889H13.3333ZM12.2222 17.7778V25.5556C12.2222 25.8704 12.3287 26.1343 12.5417 26.3472C12.7546 26.5602 13.0185 26.6667 13.3333 26.6667H26.6667C26.9815 26.6667 27.2454 26.5602 27.4583 26.3472C27.6713 26.1343 27.7778 25.8704 27.7778 25.5556V17.7778H12.2222ZM16.6667 12.2222V11.1111C16.6667 10.7963 16.7731 10.5324 16.9861 10.3194C17.1991 10.1065 17.463 10 17.7778 10H22.2222C22.537 10 22.8009 10.1065 23.0139 10.3194C23.2269 10.5324 23.3333 10.7963 23.3333 11.1111V12.2222H28.8889C29.2037 12.2222 29.4676 12.3287 29.6806 12.5417C29.8935 12.7546 30 13.0185 30 13.3333C30 13.6481 29.8935 13.912 29.6806 14.125C29.4676 14.338 29.2037 14.4444 28.8889 14.4444H11.1111C10.7963 14.4444 10.5324 14.338 10.3194 14.125C10.1065 13.912 10 13.6481 10 13.3333C10 13.0185 10.1065 12.7546 10.3194 12.5417C10.5324 12.3287 10.7963 12.2222 11.1111 12.2222H16.6667Z" fill="white"/>
        </svg>
        <!-- Stock Accionado -->
        <svg id="stock_accionado" width="39" height="39" viewBox="0 0 39 39" fill="currentColor" xmlns="http://www.w3.org/2000/svg">
            <circle cx="19" cy="19" r="18.5" fill="white" stroke="currentColor"/>
            <path d="M13.3333 28.8889C12.4074 28.8889 11.6204 28.5648 10.9722 27.9167C10.3241 27.2685 10 26.4815 10 25.5556V16.6667C10 16.3519 10.1065 16.088 10.3194 15.875C10.5324 15.662 10.7963 15.5556 11.1111 15.5556H28.8889C29.2037 15.5556 29.4676 15.662 29.6806 15.875C29.8935 16.088 30 16.3519 30 16.6667V25.5556C30 26.4815 29.6759 27.2685 29.0278 27.9167C28.3796 28.5648 27.5926 28.8889 26.6667 28.8889H13.3333ZM12.2222 17.7778V25.5556C12.2222 25.8704 12.3287 26.1343 12.5417 26.3472C12.7546 26.5602 13.0185 26.6667 13.3333 26.6667H26.6667C26.9815 26.6667 27.2454 26.5602 27.4583 26.3472C27.6713 26.1343 27.7778 25.8704 27.7778 25.5556V17.7778H12.2222ZM16.6667 12.2222V11.1111C16.6667 10.7963 16.7731 10.5324 16.9861 10.3194C17.1991 10.1065 17.463 10 17.7778 10H22.2222C22.537 10 22.8009 10.1065 23.0139 10.3194C23.2269 10.5324 23.3333 10.7963 23.3333 11.1111V12.2222H28.8889C29.2037 12.2222 29.4676 12.3287 29.6806 12.5417C29.8935 12.7546 30 13.0185 30 13.3333C30 13.6481 29.8935 13.912 29.6806 14.125C29.4676 14.338 29.2037 14.4444 28.8889 14.4444H11.1111C10.7963 14.4444 10.5324 14.338 10.3194 14.125C10.1065 13.912 10 13.6481 10 13.3333C10 13.0185 10.1065 12.7546 10.3194 12.5417C10.5324 12.3287 10.7963 12.2222 11.1111 12.2222H16.6667Z" />
        </svg>
        <!-- Stock Disabled -->
        <svg id="stock_disabled" width="39" height="39" viewBox="0 0 39 39" fill="none" xmlns="http://www.w3.org/2000/svg">
            <circle cx="19" cy="19" r="18.5" fill="white" stroke="#99948E"/>
            <path d="M13.3333 28.8889C12.4074 28.8889 11.6204 28.5648 10.9722 27.9167C10.3241 27.2685 10 26.4815 10 25.5556V16.6667C10 16.3519 10.1065 16.088 10.3194 15.875C10.5324 15.662 10.7963 15.5556 11.1111 15.5556H28.8889C29.2037 15.5556 29.4676 15.662 29.6806 15.875C29.8935 16.088 30 16.3519 30 16.6667V25.5556C30 26.4815 29.6759 27.2685 29.0278 27.9167C28.3796 28.5648 27.5926 28.8889 26.6667 28.8889H13.3333ZM12.2222 17.7778V25.5556C12.2222 25.8704 12.3287 26.1343 12.5417 26.3472C12.7546 26.5602 13.0185 26.6667 13.3333 26.6667H26.6667C26.9815 26.6667 27.2454 26.5602 27.4583 26.3472C27.6713 26.1343 27.7778 25.8704 27.7778 25.5556V17.7778H12.2222ZM16.6667 12.2222V11.1111C16.6667 10.7963 16.7731 10.5324 16.9861 10.3194C17.1991 10.1065 17.463 10 17.7778 10H22.2222C22.537 10 22.8009 10.1065 23.0139 10.3194C23.2269 10.5324 23.3333 10.7963 23.3333 11.1111V12.2222H28.8889C29.2037 12.2222 29.4676 12.3287 29.6806 12.5417C29.8935 12.7546 30 13.0185 30 13.3333C30 13.6481 29.8935 13.912 29.6806 14.125C29.4676 14.338 29.2037 14.4444 28.8889 14.4444H11.1111C10.7963 14.4444 10.5324 14.338 10.3194 14.125C10.1065 13.912 10 13.6481 10 13.3333C10 13.0185 10.1065 12.7546 10.3194 12.5417C10.5324 12.3287 10.7963 12.2222 11.1111 12.2222H16.6667Z" fill="#99948E"/>
        </svg>
        <!-- Eliminar -->
        <svg id="eliminar" width="39" height="39" viewBox="0 0 39 39" fill="currentColor" xmlns="http://www.w3.org/2000/svg">
            <circle cx="19" cy="19" r="19" />
            <g>
                <path d="M23.0455 16.7955V26.2955H15.0455V16.7955H23.0455ZM22.9205 12.2955H16.1705L15.4205 13.0455H12.7955V14.5455H25.2955V13.0455H20.6705L22.9205 12.2955ZM25.5455 15.2955H13.5455V26.2955C13.5455 27.1205 14.2205 27.7955 15.0455 27.7955H23.0455C23.8705 27.7955 24.8705 27.1205 24.8705 26.2955V15.2955Z" fill="white"/>
            </g>
        </svg>
        <!-- Eliminar Accionado -->
        <svg id="eliminar_accionado" width="39" height="39" viewBox="0 0 39 39" fill="currentColor" xmlns="http://www.w3.org/2000/svg">
            <circle cx="19" cy="19" r="18.5" fill="white" stroke="currentColor"/>
            <g>
                <path d="M23.0455 16.7955V26.2955H15.0455V16.7955H23.0455ZM22.9205 12.2955H16.1705L15.4205 13.0455H12.7955V14.5455H25.2955V13.0455H20.6705L22.9205 12.2955ZM25.5455 15.2955H13.5455V26.2955C13.5455 27.1205 14.2205 27.7955 15.0455 27.7955H23.0455C23.8705 27.7955 24.8705 27.1205 24.8705 26.2955V15.2955Z" fill="currentColor"/>
            </g>
        </svg>
        <!-- Eliminar Disabled -->
        <svg id="eliminar_disabled" width="39" height="39" viewBox="0 0 39 39" fill="none" xmlns="http://www.w3.org/2000/svg">
            <circle cx="19" cy="19" r="18.5" fill="white" stroke="#99948E"/>
            <g>
                <path d="M23.0455 16.7955V26.2955H15.0455V16.7955H23.0455ZM22.9205 12.2955H16.1705L15.4205 13.0455H12.7955V14.5455H25.2955V13.0455H20.6705L22.9205 12.2955ZM25.5455 15.2955H13.5455V26.2955C13.5455 27.1205 14.2205 27.7955 15.0455 27.7955H23.0455C23.8705 27.7955 24.8705 27.1205 24.8705 26.2955V15.2955Z" fill="#99948E"/>
            </g>
        </svg>
        <!-- PDF -->
        <svg id="pdf" width="39" height="39" viewBox="0 0 39 39" fill="currentColor" xmlns="http://www.w3.org/2000/svg">
            <circle cx="19" cy="19" r="19" />
                <g clip-path="url(#clip0_1_244)">
                <path d="M25.7121 10.7121H15.7121C14.7955 10.7121 14.0455 11.4621 14.0455 12.3788V22.3788C14.0455 23.2955 14.7955 24.0455 15.7121 24.0455H25.7121C26.6288 24.0455 27.3788 23.2955 27.3788 22.3788V12.3788C27.3788 11.4621 26.6288 10.7121 25.7121 10.7121ZM25.7121 22.3788H15.7121V12.3788H25.7121V22.3788ZM12.3788 14.0455H10.7121V25.7121C10.7121 26.6288 11.4621 27.3788 12.3788 27.3788H24.0455V25.7121H12.3788V14.0455ZM22.3788 19.0455V16.5455C22.3788 16.0871 22.0038 15.7121 21.5455 15.7121H19.8788V19.8788H21.5455C22.0038 19.8788 22.3788 19.5038 22.3788 19.0455ZM20.7121 16.5455H21.5455V19.0455H20.7121V16.5455ZM24.0455 18.2121H24.8788V17.3788H24.0455V16.5455H24.8788V15.7121H23.2121V19.8788H24.0455V18.2121ZM17.3788 18.2121H18.2121C18.6705 18.2121 19.0455 17.8371 19.0455 17.3788V16.5455C19.0455 16.0871 18.6705 15.7121 18.2121 15.7121H16.5455V19.8788H17.3788V18.2121ZM17.3788 16.5455H18.2121V17.3788H17.3788V16.5455Z" fill="white"/>
            </g>
            <defs>
                <clipPath id="clip0_1_244">
                    <rect width="20" height="20" fill="white" transform="translate(9.04546 9.04547)"/>
                </clipPath>
            </defs>
        </svg>
        <!-- PDF Accionado -->
        <svg id="pdf_accionado" width="39" height="39" viewBox="0 0 39 39" fill="currentColor" xmlns="http://www.w3.org/2000/svg">
            <circle cx="19" cy="19" r="18.5" fill="white" stroke="currentColor"/>
            <g clip-path="url(#clip0_0_238)">
                <path d="M25.7121 10.7121H15.7121C14.7955 10.7121 14.0455 11.4621 14.0455 12.3788V22.3788C14.0455 23.2955 14.7955 24.0455 15.7121 24.0455H25.7121C26.6288 24.0455 27.3788 23.2955 27.3788 22.3788V12.3788C27.3788 11.4621 26.6288 10.7121 25.7121 10.7121ZM25.7121 22.3788H15.7121V12.3788H25.7121V22.3788ZM12.3788 14.0455H10.7121V25.7121C10.7121 26.6288 11.4621 27.3788 12.3788 27.3788H24.0455V25.7121H12.3788V14.0455ZM22.3788 19.0455V16.5455C22.3788 16.0871 22.0038 15.7121 21.5455 15.7121H19.8788V19.8788H21.5455C22.0038 19.8788 22.3788 19.5038 22.3788 19.0455ZM20.7121 16.5455H21.5455V19.0455H20.7121V16.5455ZM24.0455 18.2121H24.8788V17.3788H24.0455V16.5455H24.8788V15.7121H23.2121V19.8788H24.0455V18.2121ZM17.3788 18.2121H18.2121C18.6705 18.2121 19.0455 17.8371 19.0455 17.3788V16.5455C19.0455 16.0871 18.6705 15.7121 18.2121 15.7121H16.5455V19.8788H17.3788V18.2121ZM17.3788 16.5455H18.2121V17.3788H17.3788V16.5455Z" />
            </g>
            <defs>
                <clipPath id="clip0_0_238">
                    <rect width="20" height="20" fill="white" transform="translate(9.04546 9.04547)"/>
                </clipPath>
            </defs>
        </svg>
        <!-- PDF Disabled -->
        <svg id="pdf_disabled" width="39" height="39" viewBox="0 0 39 39" fill="none" xmlns="http://www.w3.org/2000/svg">
            <circle cx="19" cy="19" r="18.5" fill="white" stroke="#99948E"/>
            <g clip-path="url(#clip0_0_506)">
                <path d="M25.7121 10.7121H15.7121C14.7955 10.7121 14.0455 11.4621 14.0455 12.3788V22.3788C14.0455 23.2955 14.7955 24.0455 15.7121 24.0455H25.7121C26.6288 24.0455 27.3788 23.2955 27.3788 22.3788V12.3788C27.3788 11.4621 26.6288 10.7121 25.7121 10.7121ZM25.7121 22.3788H15.7121V12.3788H25.7121V22.3788ZM12.3788 14.0455H10.7121V25.7121C10.7121 26.6288 11.4621 27.3788 12.3788 27.3788H24.0455V25.7121H12.3788V14.0455ZM22.3788 19.0455V16.5455C22.3788 16.0871 22.0038 15.7121 21.5455 15.7121H19.8788V19.8788H21.5455C22.0038 19.8788 22.3788 19.5038 22.3788 19.0455ZM20.7121 16.5455H21.5455V19.0455H20.7121V16.5455ZM24.0455 18.2121H24.8788V17.3788H24.0455V16.5455H24.8788V15.7121H23.2121V19.8788H24.0455V18.2121ZM17.3788 18.2121H18.2121C18.6705 18.2121 19.0455 17.8371 19.0455 17.3788V16.5455C19.0455 16.0871 18.6705 15.7121 18.2121 15.7121H16.5455V19.8788H17.3788V18.2121ZM17.3788 16.5455H18.2121V17.3788H17.3788V16.5455Z" fill="#99948E"/>
            </g>
            <defs>
                <clipPath id="clip0_0_506">
                    <rect width="20" height="20" fill="white" transform="translate(9.04547 9.04547)"/>
                </clipPath> 
            </defs>
        </svg>
        <!-- Imprimir -->
        <svg id="imprimir" width="39" height="39" viewBox="0 0 39 39" fill="currentColor" xmlns="http://www.w3.org/2000/svg">
            <circle cx="19" cy="19" r="19" />
            <g clip-path="url(#clip0_535_421)" transform="scale(0.8) translate(4.9, 4.9)">
                <path d="M26.5568 14.6818H25.4773V9.28409H12.5227V14.6818H11.4432C9.65115 14.6818 8.20456 16.1284 8.20456 17.9205V24.3977H12.5227V28.7159H25.4773V24.3977H29.7955V17.9205C29.7955 16.1284 28.3489 14.6818 26.5568 14.6818ZM14.6818 11.4432H23.3182V14.6818H14.6818V11.4432ZM23.3182 24.3977V26.5568H14.6818V22.2386H23.3182V24.3977ZM25.4773 22.2386V20.0795H12.5227V22.2386H10.3637V17.9205C10.3637 17.3267 10.8494 16.8409 11.4432 16.8409H26.5568C27.1506 16.8409 27.6364 17.3267 27.6364 17.9205V22.2386H25.4773Z" fill="white"/>
                <path d="M25.4773 19.5398C26.0735 19.5398 26.5568 19.0564 26.5568 18.4602C26.5568 17.864 26.0735 17.3807 25.4773 17.3807C24.8811 17.3807 24.3977 17.864 24.3977 18.4602C24.3977 19.0564 24.8811 19.5398 25.4773 19.5398Z" fill="white"/>
            </g>
            <defs>
                <clipPath id="clip0_535_421">
                    <rect width="25.9091" height="25.9091" fill="white" transform="translate(6.04547 6.04546)"/>
                </clipPath>
            </defs>
        </svg>
        <!-- Imprimir Accionado -->
        <svg id="imprimir_accionado" width="39" height="39" viewBox="0 0 39 39" fill="cuurentColor" xmlns="http://www.w3.org/2000/svg">
            <circle cx="19" cy="19" r="18.5" fill="white" stroke="currentColor"/>
            <g clip-path="url(#clip0_535_421)" transform="scale(0.8) translate(4.9, 4.9)">
                <path d="M26.5568 14.6818H25.4773V9.28409H12.5227V14.6818H11.4432C9.65115 14.6818 8.20456 16.1284 8.20456 17.9205V24.3977H12.5227V28.7159H25.4773V24.3977H29.7955V17.9205C29.7955 16.1284 28.3489 14.6818 26.5568 14.6818ZM14.6818 11.4432H23.3182V14.6818H14.6818V11.4432ZM23.3182 24.3977V26.5568H14.6818V22.2386H23.3182V24.3977ZM25.4773 22.2386V20.0795H12.5227V22.2386H10.3637V17.9205C10.3637 17.3267 10.8494 16.8409 11.4432 16.8409H26.5568C27.1506 16.8409 27.6364 17.3267 27.6364 17.9205V22.2386H25.4773Z" />
                <path d="M25.4773 19.5398C26.0735 19.5398 26.5568 19.0564 26.5568 18.4602C26.5568 17.864 26.0735 17.3807 25.4773 17.3807C24.8811 17.3807 24.3977 17.864 24.3977 18.4602C24.3977 19.0564 24.8811 19.5398 25.4773 19.5398Z" />
            </g>
            <defs>
                <clipPath id="clip0_535_421">
                    <rect width="25.9091" height="25.9091" fill="white" transform="translate(6.04547 6.04546)"/>
                </clipPath>
            </defs>
        </svg>
        <!-- Imprimir Disabled -->
        <svg id="imprimir_disabled" width="39" height="39" viewBox="0 0 39 39" fill="none" xmlns="http://www.w3.org/2000/svg">
            <circle cx="19" cy="19" r="18.5" fill="white" stroke="#A3A3A3"/>
            <g clip-path="url(#clip0_535_421)" transform="scale(0.8) translate(4.9, 4.9)">
                <path d="M26.5568 14.6818H25.4773V9.28409H12.5227V14.6818H11.4432C9.65115 14.6818 8.20456 16.1284 8.20456 17.9205V24.3977H12.5227V28.7159H25.4773V24.3977H29.7955V17.9205C29.7955 16.1284 28.3489 14.6818 26.5568 14.6818ZM14.6818 11.4432H23.3182V14.6818H14.6818V11.4432ZM23.3182 24.3977V26.5568H14.6818V22.2386H23.3182V24.3977ZM25.4773 22.2386V20.0795H12.5227V22.2386H10.3637V17.9205C10.3637 17.3267 10.8494 16.8409 11.4432 16.8409H26.5568C27.1506 16.8409 27.6364 17.3267 27.6364 17.9205V22.2386H25.4773Z" fill="#A3A3A3"/>
                <path d="M25.4773 19.5398C26.0735 19.5398 26.5568 19.0564 26.5568 18.4602C26.5568 17.864 26.0735 17.3807 25.4773 17.3807C24.8811 17.3807 24.3977 17.864 24.3977 18.4602C24.3977 19.0564 24.8811 19.5398 25.4773 19.5398Z" fill="#A3A3A3"/>
            </g>
            <defs>
                <clipPath id="clip0_535_421">
                    <rect width="25.9091" height="25.9091" fill="white" transform="translate(6.04547 6.04546)"/>
                </clipPath>
            </defs>
        </svg>
        <!-- Ver -->
        <svg id="ver" width="37" height="37" viewBox="0 0 37 37" fill="currentColor" xmlns="http://www.w3.org/2000/svg">
            <circle cx="18" cy="18" r="18" />
            <path d="M18 14.4545C20.7564 14.4545 23.2145 16.0036 24.4145 18.4545C23.2145 20.9055 20.7636 22.4545 18 22.4545C15.2364 22.4545 12.7855 20.9055 11.5855 18.4545C12.7855 16.0036 15.2436 14.4545 18 14.4545ZM18 13C14.3636 13 11.2582 15.2618 10 18.4545C11.2582 21.6473 14.3636 23.9091 18 23.9091C21.6364 23.9091 24.7418 21.6473 26 18.4545C24.7418 15.2618 21.6364 13 18 13ZM18 16.6364C19.0036 16.6364 19.8182 17.4509 19.8182 18.4545C19.8182 19.4582 19.0036 20.2727 18 20.2727C16.9964 20.2727 16.1818 19.4582 16.1818 18.4545C16.1818 17.4509 16.9964 16.6364 18 16.6364ZM18 15.1818C16.1964 15.1818 14.7273 16.6509 14.7273 18.4545C14.7273 20.2582 16.1964 21.7273 18 21.7273C19.8036 21.7273 21.2727 20.2582 21.2727 18.4545C21.2727 16.6509 19.8036 15.1818 18 15.1818Z" fill="white"/>
        </svg>
        <!-- Ver Accionado -->
        <svg id="ver_accionado" width="37" height="37" viewBox="0 0 37 37" fill="currentColor" xmlns="http://www.w3.org/2000/svg">
            <circle cx="18" cy="18" r="17.5" fill="white" stroke="currentColor"/>
            <path d="M18 14.4545C20.7564 14.4545 23.2145 16.0036 24.4145 18.4545C23.2145 20.9055 20.7636 22.4545 18 22.4545C15.2364 22.4545 12.7855 20.9055 11.5855 18.4545C12.7855 16.0036 15.2436 14.4545 18 14.4545ZM18 13C14.3636 13 11.2582 15.2618 10 18.4545C11.2582 21.6473 14.3636 23.9091 18 23.9091C21.6364 23.9091 24.7418 21.6473 26 18.4545C24.7418 15.2618 21.6364 13 18 13ZM18 16.6364C19.0036 16.6364 19.8182 17.4509 19.8182 18.4545C19.8182 19.4582 19.0036 20.2727 18 20.2727C16.9964 20.2727 16.1818 19.4582 16.1818 18.4545C16.1818 17.4509 16.9964 16.6364 18 16.6364ZM18 15.1818C16.1964 15.1818 14.7273 16.6509 14.7273 18.4545C14.7273 20.2582 16.1964 21.7273 18 21.7273C19.8036 21.7273 21.2727 20.2582 21.2727 18.4545C21.2727 16.6509 19.8036 15.1818 18 15.1818Z" />
        </svg>
        <!-- Ver Disabled -->
        <svg id="ver_disabled" width="37" height="37" viewBox="0 0 37 37" fill="none" xmlns="http://www.w3.org/2000/svg">
            <circle cx="18" cy="18" r="17.5" fill="white" stroke="#99948E"/>
            <path d="M18 14.4545C20.7564 14.4545 23.2145 16.0036 24.4145 18.4545C23.2145 20.9055 20.7636 22.4545 18 22.4545C15.2364 22.4545 12.7855 20.9055 11.5855 18.4545C12.7855 16.0036 15.2436 14.4545 18 14.4545ZM18 13C14.3636 13 11.2582 15.2618 10 18.4545C11.2582 21.6473 14.3636 23.9091 18 23.9091C21.6364 23.9091 24.7418 21.6473 26 18.4545C24.7418 15.2618 21.6364 13 18 13ZM18 16.6364C19.0036 16.6364 19.8182 17.4509 19.8182 18.4545C19.8182 19.4582 19.0036 20.2727 18 20.2727C16.9964 20.2727 16.1818 19.4582 16.1818 18.4545C16.1818 17.4509 16.9964 16.6364 18 16.6364ZM18 15.1818C16.1964 15.1818 14.7273 16.6509 14.7273 18.4545C14.7273 20.2582 16.1964 21.7273 18 21.7273C19.8036 21.7273 21.2727 20.2582 21.2727 18.4545C21.2727 16.6509 19.8036 15.1818 18 15.1818Z" fill="#99948E"/>
        </svg>
        <!--  Vista lista -->
        <svg id="vista_lista" width="37" height="37" viewBox="0 0 37 37" fill="none" xmlns="http://www.w3.org/2000/svg">
            <circle cx="18" cy="18" r="18" fill="currentColor"/>
            <path d="M10 19.3333H11.7778V17.5556H10V19.3333ZM10 22.8889H11.7778V21.1111H10V22.8889ZM10 15.7778H11.7778V14H10V15.7778ZM13.5556 19.3333H26V17.5556H13.5556V19.3333ZM13.5556 22.8889H26V21.1111H13.5556V22.8889ZM13.5556 14V15.7778H26V14H13.5556ZM10 19.3333H11.7778V17.5556H10V19.3333ZM10 22.8889H11.7778V21.1111H10V22.8889ZM10 15.7778H11.7778V14H10V15.7778ZM13.5556 19.3333H26V17.5556H13.5556V19.3333ZM13.5556 22.8889H26V21.1111H13.5556V22.8889ZM13.5556 14V15.7778H26V14H13.5556Z" fill="white"/>
        </svg>
        <!--  Vista lista Accionado -->
        <svg id="vista_lista_accionado" width="37" height="37" viewBox="0 0 37 37" fill="none" xmlns="http://www.w3.org/2000/svg">
            <circle cx="18" cy="18" r="17.5" fill="white" stroke="currentColor"/>
            <path d="M10 19.3333H11.7778V17.5556H10V19.3333ZM10 22.8889H11.7778V21.1111H10V22.8889ZM10 15.7778H11.7778V14H10V15.7778ZM13.5556 19.3333H26V17.5556H13.5556V19.3333ZM13.5556 22.8889H26V21.1111H13.5556V22.8889ZM13.5556 14V15.7778H26V14H13.5556ZM10 19.3333H11.7778V17.5556H10V19.3333ZM10 22.8889H11.7778V21.1111H10V22.8889ZM10 15.7778H11.7778V14H10V15.7778ZM13.5556 19.3333H26V17.5556H13.5556V19.3333ZM13.5556 22.8889H26V21.1111H13.5556V22.8889ZM13.5556 14V15.7778H26V14H13.5556Z" fill="#01B0EA"/>
        </svg>
        <!--  Vista lista Disabled -->
        <svg id="vista_lista_disabled" width="37" height="37" viewBox="0 0 37 37" fill="none" xmlns="http://www.w3.org/2000/svg">
            <circle cx="18" cy="18" r="17.5" fill="white" stroke="#99948E"/>
            <path d="M10 19.3333H11.7778V17.5556H10V19.3333ZM10 22.8889H11.7778V21.1111H10V22.8889ZM10 15.7778H11.7778V14H10V15.7778ZM13.5556 19.3333H26V17.5556H13.5556V19.3333ZM13.5556 22.8889H26V21.1111H13.5556V22.8889ZM13.5556 14V15.7778H26V14H13.5556ZM10 19.3333H11.7778V17.5556H10V19.3333ZM10 22.8889H11.7778V21.1111H10V22.8889ZM10 15.7778H11.7778V14H10V15.7778ZM13.5556 19.3333H26V17.5556H13.5556V19.3333ZM13.5556 22.8889H26V21.1111H13.5556V22.8889ZM13.5556 14V15.7778H26V14H13.5556Z" fill="#99948E"/>
        </svg>
        <!-- Credencial Usuario -->
        <svg id="credencial_usuario" width="39" height="39" viewBox="0 0 39 39" fill="currentColor" xmlns="http://www.w3.org/2000/svg">
            <circle cx="19" cy="19" r="19" />
            <path d="M21 9H13C11.9 9 11 9.9 11 11V27C11 28.1 11.9 29 13 29H25C26.1 29 27 28.1 27 27V15L21 9ZM19 17C20.1 17 21 17.9 21 19C21 20.1 20.1 21 19 21C17.9 21 17 20.1 17 19C17 17.9 17.9 17 19 17ZM23 25H15V24.43C15 23.62 15.48 22.9 16.22 22.58C17.07 22.21 18.01 22 19 22C19.99 22 20.93 22.21 21.78 22.58C22.52 22.9 23 23.62 23 24.43V25Z" fill="white"/>
        </svg>
        <!-- Credencial Usuario Accionado -->
        <svg id="credencial_usuario_accionado" width="39" height="39" viewBox="0 0 39 39" fill="currentColor" xmlns="http://www.w3.org/2000/svg">
            <circle cx="19" cy="19" r="18.5" fill="white" stroke="currentColor"/>
            <path d="M21 9H13C11.9 9 11 9.9 11 11V27C11 28.1 11.9 29 13 29H25C26.1 29 27 28.1 27 27V15L21 9ZM19 17C20.1 17 21 17.9 21 19C21 20.1 20.1 21 19 21C17.9 21 17 20.1 17 19C17 17.9 17.9 17 19 17ZM23 25H15V24.43C15 23.62 15.48 22.9 16.22 22.58C17.07 22.21 18.01 22 19 22C19.99 22 20.93 22.21 21.78 22.58C22.52 22.9 23 23.62 23 24.43V25Z" />
        </svg>
        <!-- Credencial Usuario Disabled -->
        <svg id="credencial_usuario_disabled" width="39" height="39" viewBox="0 0 39 39" fill="none" xmlns="http://www.w3.org/2000/svg">
            <circle cx="19" cy="19" r="18.5" fill="white" stroke="#99948E"/>
            <path d="M21 9H13C11.9 9 11 9.9 11 11V27C11 28.1 11.9 29 13 29H25C26.1 29 27 28.1 27 27V15L21 9ZM19 17C20.1 17 21 17.9 21 19C21 20.1 20.1 21 19 21C17.9 21 17 20.1 17 19C17 17.9 17.9 17 19 17ZM23 25H15V24.43C15 23.62 15.48 22.9 16.22 22.58C17.07 22.21 18.01 22 19 22C19.99 22 20.93 22.21 21.78 22.58C22.52 22.9 23 23.62 23 24.43V25Z" fill="#99948E"/>
        </svg>
    </defs>
</svg>